<mxfile host="app.diagrams.net" agent="Mozilla/5.0 (Windows NT 10.0; Win64; x64) AppleWebKit/537.36 (KHTML, like Gecko) Chrome/135.0.0.0 Safari/537.36 Edg/135.0.0.0" version="26.1.3">
  <diagram name="第 1 页" id="bb7rNmCT50f5uRi85dqI">
    <mxGraphModel dx="1190" dy="1736" grid="1" gridSize="10" guides="1" tooltips="1" connect="1" arrows="1" fold="1" page="1" pageScale="1" pageWidth="827" pageHeight="1169" math="0" shadow="0">
      <root>
        <mxCell id="0" />
        <mxCell id="1" parent="0" />
        <UserObject label="" plantUmlData="{&#xa;  &quot;data&quot;: &quot;@startuml\n\n&#39;--------------- 用户角色相关类 ---------------\nclass User {\n  + id: String\n  + phone: String\n  + password: String\n  + role: String (普通用户/商家用户)\n  + signIn()\n  + signOut()\n}\n\nclass CommonUser {\n  + points: Integer (签到积分)\n  + checkIn()\n  + redeemCoupon()\n}\n\nclass MerchantUser {\n  + shopName: String\n  + shopAddress: String\n  + manageShop()\n  + publishCoupon()\n}\n\nUser &lt;|-- CommonUser\nUser &lt;|-- MerchantUser\n\n&#39;--------------- 商家与优惠券 ---------------\nclass Shop {\n  + id: String\n  + name: String\n  + address: String\n  + rating: Float\n  + businessHours: String\n  + updateInfo()\n}\n\nclass Coupon {\n  + id: String\n  + amount: Float\n  + expireDate: Date\n  + conditions: String\n}\n\nMerchantUser \&quot;1\&quot; --&gt; \&quot;0..*\&quot; Coupon : 发布\nShop \&quot;1\&quot; --&gt; \&quot;0..*\&quot; Coupon : 提供\nCommonUser \&quot;1\&quot; --&gt; \&quot;0..*\&quot; Coupon : 抢购\n\n&#39;--------------- 点评与博客 ---------------\nclass Review {\n  + id: String\n  + content: String\n  + rating: Integer (1-5)\n  + images: List&lt;String&gt;\n  + video: String\n  + publish()\n}\n\nclass Blog {\n  + id: String\n  + content: String\n  + location: String (地理位置)\n  + images: List&lt;String&gt;\n  + video: String\n  + publish()\n}\n\nCommonUser \&quot;1\&quot; --&gt; \&quot;0..*\&quot; Review : 发布\nCommonUser \&quot;1\&quot; --&gt; \&quot;0..*\&quot; Blog : 发布\nReview \&quot;1\&quot; --&gt; \&quot;1\&quot; Shop : 关联商家\nBlog \&quot;1\&quot; --&gt; \&quot;1\&quot; Shop : 关联商家\n\n&#39;--------------- 社交与通知 ---------------\nclass Follow {\n  + followerId: String (关注者)\n  + followedId: String (被关注者)\n}\n\nclass Like {\n  + userId: String\n  + blogId: String\n}\n\nclass Comment {\n  + userId: String\n  + blogId: String\n  + content: String\n}\n\nclass Notification {\n  + id: String\n  + type: String (系统通知/博主更新)\n  + content: String\n  + send()\n}\n\nCommonUser \&quot;1\&quot; --&gt; \&quot;0..*\&quot; Follow : 关注\nCommonUser \&quot;1\&quot; --&gt; \&quot;0..*\&quot; Like : 点赞\nCommonUser \&quot;1\&quot; --&gt; \&quot;0..*\&quot; Comment : 评论\nNotification \&quot;1\&quot; --&gt; \&quot;0..*\&quot; User : 发送\n\n@enduml&quot;,&#xa;  &quot;format&quot;: &quot;svg&quot;&#xa;}" id="XPcJGYw2Ykh2K-029kaq-6">
          <mxCell style="shape=image;noLabel=1;verticalAlign=top;aspect=fixed;imageAspect=0;image=data:image/svg+xml,PHN2ZyB4bWxucz0iaHR0cDovL3d3dy53My5vcmcvMjAwMC9zdmciIHhtbG5zOnhsaW5rPSJodHRwOi8vd3d3LnczLm9yZy8xOTk5L3hsaW5rIiBjb250ZW50U3R5bGVUeXBlPSJ0ZXh0L2NzcyIgZGF0YS1kaWFncmFtLXR5cGU9IkNMQVNTIiBoZWlnaHQ9IjExOTBweCIgcHJlc2VydmVBc3BlY3RSYXRpbz0ibm9uZSIgc3R5bGU9IndpZHRoOjEyNTNweDtoZWlnaHQ6MTE5MHB4O2JhY2tncm91bmQ6I0ZGRkZGRjsiIHZlcnNpb249IjEuMSIgdmlld0JveD0iMCAwIDEyNTMgMTE5MCIgd2lkdGg9IjEyNTNweCIgem9vbUFuZFBhbj0ibWFnbmlmeSI+PGRlZnMvPjxnPjwhLS1jbGFzcyBVc2VyLS0+PGcgY2xhc3M9ImVudGl0eSIgZGF0YS1lbnRpdHk9IlVzZXIiIGRhdGEtc291cmNlLWxpbmU9IjIiIGRhdGEtdWlkPSJlbnQwMDAyIiBpZD0iZW50aXR5X1VzZXIiPjxyZWN0IGZpbGw9IiNGMUYxRjEiIGhlaWdodD0iMTM3LjkwNjMiIHJ4PSIyLjUiIHJ5PSIyLjUiIHN0eWxlPSJzdHJva2U6IzE4MTgxODtzdHJva2Utd2lkdGg6MC41OyIgd2lkdGg9IjI1MCIgeD0iNzEzLjA2IiB5PSIxOTAiLz48ZWxsaXBzZSBjeD0iODE5LjgxIiBjeT0iMjA2IiBmaWxsPSIjQUREMUIyIiByeD0iMTEiIHJ5PSIxMSIgc3R5bGU9InN0cm9rZTojMTgxODE4O3N0cm9rZS13aWR0aDoxOyIvPjxwYXRoIGQ9Ik04MTcuNDM1LDIxMC4yNSBMODE3LjQzNSwyMTIgTDgyMi4zNzI1LDIxMiBMODIyLjM3MjUsMjEwLjI1IEw4MTcuNDM1LDIxMC4yNSBaIE04MTguMTIyNSwyMTAuOTM3NSBRODE4LjEyMjUsMjEwLjkzNzUgODE4LjEyMjUsMjAxLjc1IEw4MTYuMzcyNSwyMDEuNzUgUTgxNi4zNzI1LDIwMS43NSA4MTYuMzcyNSwyMTAuOTM3NSBMODE4LjEyMjUsMjEwLjkzNzUgWiBNODIxLjY4NSwyMTAuOTM3NSBMODIzLjQzNSwyMTAuOTM3NSBRODIzLjQzNSwyMTAuOTM3NSA4MjMuNDM1LDIwOC4xMjUgTDgyMS42ODUsMjA4LjEyNSBRODIxLjY4NSwyMDguMTI1IDgyMS42ODUsMjEwLjkzNzUgWiBNODIxLjY4NSwyMDEuNzUgUTgyMS42ODUsMjAxLjc1IDgyMS42ODUsMjA0LjU2MjUgTDgyMy40MzUsMjA0LjU2MjUgUTgyMy40MzUsMjA0LjU2MjUgODIzLjQzNSwyMDEuNzUgTDgyMS42ODUsMjAxLjc1IFogTTgxNy40MzUsMjAyLjQzNzUgTDgyMi4zNzI1LDIwMi40Mzc1IEw4MjIuMzcyNSwyMDAuNjg3NSBMODE3LjQzNSwyMDAuNjg3NSBMODE3LjQzNSwyMDIuNDM3NSBaICIgZmlsbD0iIzAwMDAwMCIvPjx0ZXh0IGZpbGw9IiMwMDAwMDAiIGZvbnQtZmFtaWx5PSJzYW5zLXNlcmlmIiBmb250LXNpemU9IjE0IiBsZW5ndGhBZGp1c3Q9InNwYWNpbmciIHRleHRMZW5ndGg9IjI4IiB4PSI4NDAuMzEiIHk9IjIxMS43NDIyIj5Vc2VyPC90ZXh0PjxsaW5lIHN0eWxlPSJzdHJva2U6IzE4MTgxODtzdHJva2Utd2lkdGg6MC41OyIgeDE9IjcxNC4wNiIgeDI9Ijk2Mi4wNiIgeTE9IjIyMiIgeTI9IjIyMiIvPjxlbGxpcHNlIGN4PSI3MjQuMDYiIGN5PSIyMzQuOTkyMiIgZmlsbD0ibm9uZSIgcng9IjMiIHJ5PSIzIiBzdHlsZT0ic3Ryb2tlOiMwMzgwNDg7c3Ryb2tlLXdpZHRoOjE7Ii8+PHRleHQgZmlsbD0iIzAwMDAwMCIgZm9udC1mYW1pbHk9InNhbnMtc2VyaWYiIGZvbnQtc2l6ZT0iMTQiIGxlbmd0aEFkanVzdD0ic3BhY2luZyIgdGV4dExlbmd0aD0iNzAiIHg9IjczMy4wNiIgeT0iMjM5LjIzNDQiPmlkOiBTdHJpbmc8L3RleHQ+PGVsbGlwc2UgY3g9IjcyNC4wNiIgY3k9IjI0OS45NzY2IiBmaWxsPSJub25lIiByeD0iMyIgcnk9IjMiIHN0eWxlPSJzdHJva2U6IzAzODA0ODtzdHJva2Utd2lkdGg6MTsiLz48dGV4dCBmaWxsPSIjMDAwMDAwIiBmb250LWZhbWlseT0ic2Fucy1zZXJpZiIgZm9udC1zaXplPSIxNCIgbGVuZ3RoQWRqdXN0PSJzcGFjaW5nIiB0ZXh0TGVuZ3RoPSI5MSIgeD0iNzMzLjA2IiB5PSIyNTQuMjE4OCI+cGhvbmU6IFN0cmluZzwvdGV4dD48ZWxsaXBzZSBjeD0iNzI0LjA2IiBjeT0iMjY0Ljk2MDkiIGZpbGw9Im5vbmUiIHJ4PSIzIiByeT0iMyIgc3R5bGU9InN0cm9rZTojMDM4MDQ4O3N0cm9rZS13aWR0aDoxOyIvPjx0ZXh0IGZpbGw9IiMwMDAwMDAiIGZvbnQtZmFtaWx5PSJzYW5zLXNlcmlmIiBmb250LXNpemU9IjE0IiBsZW5ndGhBZGp1c3Q9InNwYWNpbmciIHRleHRMZW5ndGg9IjExMiIgeD0iNzMzLjA2IiB5PSIyNjkuMjAzMSI+cGFzc3dvcmQ6IFN0cmluZzwvdGV4dD48bGluZSBzdHlsZT0ic3Ryb2tlOiMxODE4MTg7c3Ryb2tlLXdpZHRoOjAuNTsiIHgxPSI3MTQuMDYiIHgyPSI5NjIuMDYiIHkxPSIyNzQuOTUzMSIgeTI9IjI3NC45NTMxIi8+PGVsbGlwc2UgY3g9IjcyNC4wNiIgY3k9IjI4Ny45NDUzIiBmaWxsPSIjODRCRTg0IiByeD0iMyIgcnk9IjMiIHN0eWxlPSJzdHJva2U6IzAzODA0ODtzdHJva2Utd2lkdGg6MTsiLz48dGV4dCBmaWxsPSIjMDAwMDAwIiBmb250LWZhbWlseT0ic2Fucy1zZXJpZiIgZm9udC1zaXplPSIxNCIgbGVuZ3RoQWRqdXN0PSJzcGFjaW5nIiB0ZXh0TGVuZ3RoPSIyMjQiIHg9IjczMy4wNiIgeT0iMjkyLjE4NzUiPnJvbGU6IFN0cmluZyAoJiMyNjIyMjsmIzM2ODkwOyYjMjk5OTI7JiMyNTE0MzsvJiMyMTgzMDsmIzIzNDc4OyYjMjk5OTI7JiMyNTE0MzspPC90ZXh0PjxlbGxpcHNlIGN4PSI3MjQuMDYiIGN5PSIzMDIuOTI5NyIgZmlsbD0iIzg0QkU4NCIgcng9IjMiIHJ5PSIzIiBzdHlsZT0ic3Ryb2tlOiMwMzgwNDg7c3Ryb2tlLXdpZHRoOjE7Ii8+PHRleHQgZmlsbD0iIzAwMDAwMCIgZm9udC1mYW1pbHk9InNhbnMtc2VyaWYiIGZvbnQtc2l6ZT0iMTQiIGxlbmd0aEFkanVzdD0ic3BhY2luZyIgdGV4dExlbmd0aD0iNTYiIHg9IjczMy4wNiIgeT0iMzA3LjE3MTkiPnNpZ25JbigpPC90ZXh0PjxlbGxpcHNlIGN4PSI3MjQuMDYiIGN5PSIzMTcuOTE0MSIgZmlsbD0iIzg0QkU4NCIgcng9IjMiIHJ5PSIzIiBzdHlsZT0ic3Ryb2tlOiMwMzgwNDg7c3Ryb2tlLXdpZHRoOjE7Ii8+PHRleHQgZmlsbD0iIzAwMDAwMCIgZm9udC1mYW1pbHk9InNhbnMtc2VyaWYiIGZvbnQtc2l6ZT0iMTQiIGxlbmd0aEFkanVzdD0ic3BhY2luZyIgdGV4dExlbmd0aD0iNjMiIHg9IjczMy4wNiIgeT0iMzIyLjE1NjMiPnNpZ25PdXQoKTwvdGV4dD48L2c+PCEtLWNsYXNzIENvbW1vblVzZXItLT48ZyBjbGFzcz0iZW50aXR5IiBkYXRhLWVudGl0eT0iQ29tbW9uVXNlciIgZGF0YS1zb3VyY2UtbGluZT0iMTEiIGRhdGEtdWlkPSJlbnQwMDAzIiBpZD0iZW50aXR5X0NvbW1vblVzZXIiPjxyZWN0IGZpbGw9IiNGMUYxRjEiIGhlaWdodD0iOTIuOTUzMSIgcng9IjIuNSIgcnk9IjIuNSIgc3R5bGU9InN0cm9rZTojMTgxODE4O3N0cm9rZS13aWR0aDowLjU7IiB3aWR0aD0iMjA4IiB4PSI1NzMuMDYiIHk9IjM4OSIvPjxlbGxpcHNlIGN4PSI2MzcuODEiIGN5PSI0MDUiIGZpbGw9IiNBREQxQjIiIHJ4PSIxMSIgcnk9IjExIiBzdHlsZT0ic3Ryb2tlOiMxODE4MTg7c3Ryb2tlLXdpZHRoOjE7Ii8+PHBhdGggZD0iTTYzNS40MzUsNDA5LjI1IEw2MzUuNDM1LDQxMSBMNjQwLjM3MjUsNDExIEw2NDAuMzcyNSw0MDkuMjUgTDYzNS40MzUsNDA5LjI1IFogTTYzNi4xMjI1LDQwOS45Mzc1IFE2MzYuMTIyNSw0MDkuOTM3NSA2MzYuMTIyNSw0MDAuNzUgTDYzNC4zNzI1LDQwMC43NSBRNjM0LjM3MjUsNDAwLjc1IDYzNC4zNzI1LDQwOS45Mzc1IEw2MzYuMTIyNSw0MDkuOTM3NSBaIE02MzkuNjg1LDQwOS45Mzc1IEw2NDEuNDM1LDQwOS45Mzc1IFE2NDEuNDM1LDQwOS45Mzc1IDY0MS40MzUsNDA3LjEyNSBMNjM5LjY4NSw0MDcuMTI1IFE2MzkuNjg1LDQwNy4xMjUgNjM5LjY4NSw0MDkuOTM3NSBaIE02MzkuNjg1LDQwMC43NSBRNjM5LjY4NSw0MDAuNzUgNjM5LjY4NSw0MDMuNTYyNSBMNjQxLjQzNSw0MDMuNTYyNSBRNjQxLjQzNSw0MDMuNTYyNSA2NDEuNDM1LDQwMC43NSBMNjM5LjY4NSw0MDAuNzUgWiBNNjM1LjQzNSw0MDEuNDM3NSBMNjQwLjM3MjUsNDAxLjQzNzUgTDY0MC4zNzI1LDM5OS42ODc1IEw2MzUuNDM1LDM5OS42ODc1IEw2MzUuNDM1LDQwMS40Mzc1IFogIiBmaWxsPSIjMDAwMDAwIi8+PHRleHQgZmlsbD0iIzAwMDAwMCIgZm9udC1mYW1pbHk9InNhbnMtc2VyaWYiIGZvbnQtc2l6ZT0iMTQiIGxlbmd0aEFkanVzdD0ic3BhY2luZyIgdGV4dExlbmd0aD0iNzAiIHg9IjY1OC4zMSIgeT0iNDEwLjc0MjIiPkNvbW1vblVzZXI8L3RleHQ+PGxpbmUgc3R5bGU9InN0cm9rZTojMTgxODE4O3N0cm9rZS13aWR0aDowLjU7IiB4MT0iNTc0LjA2IiB4Mj0iNzgwLjA2IiB5MT0iNDIxIiB5Mj0iNDIxIi8+PGxpbmUgc3R5bGU9InN0cm9rZTojMTgxODE4O3N0cm9rZS13aWR0aDowLjU7IiB4MT0iNTc0LjA2IiB4Mj0iNzgwLjA2IiB5MT0iNDI5IiB5Mj0iNDI5Ii8+PGVsbGlwc2UgY3g9IjU4NC4wNiIgY3k9IjQ0MS45OTIyIiBmaWxsPSIjODRCRTg0IiByeD0iMyIgcnk9IjMiIHN0eWxlPSJzdHJva2U6IzAzODA0ODtzdHJva2Utd2lkdGg6MTsiLz48dGV4dCBmaWxsPSIjMDAwMDAwIiBmb250LWZhbWlseT0ic2Fucy1zZXJpZiIgZm9udC1zaXplPSIxNCIgbGVuZ3RoQWRqdXN0PSJzcGFjaW5nIiB0ZXh0TGVuZ3RoPSIxODIiIHg9IjU5My4wNiIgeT0iNDQ2LjIzNDQiPnBvaW50czogSW50ZWdlciAoJiMzMTYxNDsmIzIxMDQwOyYjMzEyMTU7JiMyMDk5ODspPC90ZXh0PjxlbGxpcHNlIGN4PSI1ODQuMDYiIGN5PSI0NTYuOTc2NiIgZmlsbD0iIzg0QkU4NCIgcng9IjMiIHJ5PSIzIiBzdHlsZT0ic3Ryb2tlOiMwMzgwNDg7c3Ryb2tlLXdpZHRoOjE7Ii8+PHRleHQgZmlsbD0iIzAwMDAwMCIgZm9udC1mYW1pbHk9InNhbnMtc2VyaWYiIGZvbnQtc2l6ZT0iMTQiIGxlbmd0aEFkanVzdD0ic3BhY2luZyIgdGV4dExlbmd0aD0iNjMiIHg9IjU5My4wNiIgeT0iNDYxLjIxODgiPmNoZWNrSW4oKTwvdGV4dD48ZWxsaXBzZSBjeD0iNTg0LjA2IiBjeT0iNDcxLjk2MDkiIGZpbGw9IiM4NEJFODQiIHJ4PSIzIiByeT0iMyIgc3R5bGU9InN0cm9rZTojMDM4MDQ4O3N0cm9rZS13aWR0aDoxOyIvPjx0ZXh0IGZpbGw9IiMwMDAwMDAiIGZvbnQtZmFtaWx5PSJzYW5zLXNlcmlmIiBmb250LXNpemU9IjE0IiBsZW5ndGhBZGp1c3Q9InNwYWNpbmciIHRleHRMZW5ndGg9Ijk4IiB4PSI1OTMuMDYiIHk9IjQ3Ni4yMDMxIj5yZWRlZW1Db3Vwb24oKTwvdGV4dD48L2c+PCEtLWNsYXNzIE1lcmNoYW50VXNlci0tPjxnIGNsYXNzPSJlbnRpdHkiIGRhdGEtZW50aXR5PSJNZXJjaGFudFVzZXIiIGRhdGEtc291cmNlLWxpbmU9IjE3IiBkYXRhLXVpZD0iZW50MDAwNCIgaWQ9ImVudGl0eV9NZXJjaGFudFVzZXIiPjxyZWN0IGZpbGw9IiNGMUYxRjEiIGhlaWdodD0iMTA3LjkzNzUiIHJ4PSIyLjUiIHJ5PSIyLjUiIHN0eWxlPSJzdHJva2U6IzE4MTgxODtzdHJva2Utd2lkdGg6MC41OyIgd2lkdGg9IjE1OSIgeD0iMTA4Ny41NiIgeT0iNTEyIi8+PGVsbGlwc2UgY3g9IjExMjEuOTEiIGN5PSI1MjgiIGZpbGw9IiNBREQxQjIiIHJ4PSIxMSIgcnk9IjExIiBzdHlsZT0ic3Ryb2tlOiMxODE4MTg7c3Ryb2tlLXdpZHRoOjE7Ii8+PHBhdGggZD0iTTExMTkuNTM1LDUzMi4yNSBMMTExOS41MzUsNTM0IEwxMTI0LjQ3MjUsNTM0IEwxMTI0LjQ3MjUsNTMyLjI1IEwxMTE5LjUzNSw1MzIuMjUgWiBNMTEyMC4yMjI1LDUzMi45Mzc1IFExMTIwLjIyMjUsNTMyLjkzNzUgMTEyMC4yMjI1LDUyMy43NSBMMTExOC40NzI1LDUyMy43NSBRMTExOC40NzI1LDUyMy43NSAxMTE4LjQ3MjUsNTMyLjkzNzUgTDExMjAuMjIyNSw1MzIuOTM3NSBaIE0xMTIzLjc4NSw1MzIuOTM3NSBMMTEyNS41MzUsNTMyLjkzNzUgUTExMjUuNTM1LDUzMi45Mzc1IDExMjUuNTM1LDUzMC4xMjUgTDExMjMuNzg1LDUzMC4xMjUgUTExMjMuNzg1LDUzMC4xMjUgMTEyMy43ODUsNTMyLjkzNzUgWiBNMTEyMy43ODUsNTIzLjc1IFExMTIzLjc4NSw1MjMuNzUgMTEyMy43ODUsNTI2LjU2MjUgTDExMjUuNTM1LDUyNi41NjI1IFExMTI1LjUzNSw1MjYuNTYyNSAxMTI1LjUzNSw1MjMuNzUgTDExMjMuNzg1LDUyMy43NSBaIE0xMTE5LjUzNSw1MjQuNDM3NSBMMTEyNC40NzI1LDUyNC40Mzc1IEwxMTI0LjQ3MjUsNTIyLjY4NzUgTDExMTkuNTM1LDUyMi42ODc1IEwxMTE5LjUzNSw1MjQuNDM3NSBaICIgZmlsbD0iIzAwMDAwMCIvPjx0ZXh0IGZpbGw9IiMwMDAwMDAiIGZvbnQtZmFtaWx5PSJzYW5zLXNlcmlmIiBmb250LXNpemU9IjE0IiBsZW5ndGhBZGp1c3Q9InNwYWNpbmciIHRleHRMZW5ndGg9Ijg0IiB4PSIxMTQwLjIxIiB5PSI1MzMuNzQyMiI+TWVyY2hhbnRVc2VyPC90ZXh0PjxsaW5lIHN0eWxlPSJzdHJva2U6IzE4MTgxODtzdHJva2Utd2lkdGg6MC41OyIgeDE9IjEwODguNTYiIHgyPSIxMjQ1LjU2IiB5MT0iNTQ0IiB5Mj0iNTQ0Ii8+PGVsbGlwc2UgY3g9IjEwOTguNTYiIGN5PSI1NTYuOTkyMiIgZmlsbD0ibm9uZSIgcng9IjMiIHJ5PSIzIiBzdHlsZT0ic3Ryb2tlOiMwMzgwNDg7c3Ryb2tlLXdpZHRoOjE7Ii8+PHRleHQgZmlsbD0iIzAwMDAwMCIgZm9udC1mYW1pbHk9InNhbnMtc2VyaWYiIGZvbnQtc2l6ZT0iMTQiIGxlbmd0aEFkanVzdD0ic3BhY2luZyIgdGV4dExlbmd0aD0iMTEyIiB4PSIxMTA3LjU2IiB5PSI1NjEuMjM0NCI+c2hvcE5hbWU6IFN0cmluZzwvdGV4dD48ZWxsaXBzZSBjeD0iMTA5OC41NiIgY3k9IjU3MS45NzY2IiBmaWxsPSJub25lIiByeD0iMyIgcnk9IjMiIHN0eWxlPSJzdHJva2U6IzAzODA0ODtzdHJva2Utd2lkdGg6MTsiLz48dGV4dCBmaWxsPSIjMDAwMDAwIiBmb250LWZhbWlseT0ic2Fucy1zZXJpZiIgZm9udC1zaXplPSIxNCIgbGVuZ3RoQWRqdXN0PSJzcGFjaW5nIiB0ZXh0TGVuZ3RoPSIxMzMiIHg9IjExMDcuNTYiIHk9IjU3Ni4yMTg4Ij5zaG9wQWRkcmVzczogU3RyaW5nPC90ZXh0PjxsaW5lIHN0eWxlPSJzdHJva2U6IzE4MTgxODtzdHJva2Utd2lkdGg6MC41OyIgeDE9IjEwODguNTYiIHgyPSIxMjQ1LjU2IiB5MT0iNTgxLjk2ODgiIHkyPSI1ODEuOTY4OCIvPjxlbGxpcHNlIGN4PSIxMDk4LjU2IiBjeT0iNTk0Ljk2MDkiIGZpbGw9IiM4NEJFODQiIHJ4PSIzIiByeT0iMyIgc3R5bGU9InN0cm9rZTojMDM4MDQ4O3N0cm9rZS13aWR0aDoxOyIvPjx0ZXh0IGZpbGw9IiMwMDAwMDAiIGZvbnQtZmFtaWx5PSJzYW5zLXNlcmlmIiBmb250LXNpemU9IjE0IiBsZW5ndGhBZGp1c3Q9InNwYWNpbmciIHRleHRMZW5ndGg9Ijg0IiB4PSIxMTA3LjU2IiB5PSI1OTkuMjAzMSI+bWFuYWdlU2hvcCgpPC90ZXh0PjxlbGxpcHNlIGN4PSIxMDk4LjU2IiBjeT0iNjA5Ljk0NTMiIGZpbGw9IiM4NEJFODQiIHJ4PSIzIiByeT0iMyIgc3R5bGU9InN0cm9rZTojMDM4MDQ4O3N0cm9rZS13aWR0aDoxOyIvPjx0ZXh0IGZpbGw9IiMwMDAwMDAiIGZvbnQtZmFtaWx5PSJzYW5zLXNlcmlmIiBmb250LXNpemU9IjE0IiBsZW5ndGhBZGp1c3Q9InNwYWNpbmciIHRleHRMZW5ndGg9IjEwNSIgeD0iMTEwNy41NiIgeT0iNjE0LjE4NzUiPnB1Ymxpc2hDb3Vwb24oKTwvdGV4dD48L2c+PCEtLWNsYXNzIFNob3AtLT48ZyBjbGFzcz0iZW50aXR5IiBkYXRhLWVudGl0eT0iU2hvcCIgZGF0YS1zb3VyY2UtbGluZT0iMjgiIGRhdGEtdWlkPSJlbnQwMDA3IiBpZD0iZW50aXR5X1Nob3AiPjxyZWN0IGZpbGw9IiNGMUYxRjEiIGhlaWdodD0iMTM3LjkwNjMiIHJ4PSIyLjUiIHJ5PSIyLjUiIHN0eWxlPSJzdHJva2U6IzE4MTgxODtzdHJva2Utd2lkdGg6MC41OyIgd2lkdGg9IjE3MyIgeD0iMTg1LjU2IiB5PSI4NjMiLz48ZWxsaXBzZSBjeD0iMjUzLjgxIiBjeT0iODc5IiBmaWxsPSIjQUREMUIyIiByeD0iMTEiIHJ5PSIxMSIgc3R5bGU9InN0cm9rZTojMTgxODE4O3N0cm9rZS13aWR0aDoxOyIvPjxwYXRoIGQ9Ik0yNTEuNDM1LDg4My4yNSBMMjUxLjQzNSw4ODUgTDI1Ni4zNzI1LDg4NSBMMjU2LjM3MjUsODgzLjI1IEwyNTEuNDM1LDg4My4yNSBaIE0yNTIuMTIyNSw4ODMuOTM3NSBRMjUyLjEyMjUsODgzLjkzNzUgMjUyLjEyMjUsODc0Ljc1IEwyNTAuMzcyNSw4NzQuNzUgUTI1MC4zNzI1LDg3NC43NSAyNTAuMzcyNSw4ODMuOTM3NSBMMjUyLjEyMjUsODgzLjkzNzUgWiBNMjU1LjY4NSw4ODMuOTM3NSBMMjU3LjQzNSw4ODMuOTM3NSBRMjU3LjQzNSw4ODMuOTM3NSAyNTcuNDM1LDg4MS4xMjUgTDI1NS42ODUsODgxLjEyNSBRMjU1LjY4NSw4ODEuMTI1IDI1NS42ODUsODgzLjkzNzUgWiBNMjU1LjY4NSw4NzQuNzUgUTI1NS42ODUsODc0Ljc1IDI1NS42ODUsODc3LjU2MjUgTDI1Ny40MzUsODc3LjU2MjUgUTI1Ny40MzUsODc3LjU2MjUgMjU3LjQzNSw4NzQuNzUgTDI1NS42ODUsODc0Ljc1IFogTTI1MS40MzUsODc1LjQzNzUgTDI1Ni4zNzI1LDg3NS40Mzc1IEwyNTYuMzcyNSw4NzMuNjg3NSBMMjUxLjQzNSw4NzMuNjg3NSBMMjUxLjQzNSw4NzUuNDM3NSBaICIgZmlsbD0iIzAwMDAwMCIvPjx0ZXh0IGZpbGw9IiMwMDAwMDAiIGZvbnQtZmFtaWx5PSJzYW5zLXNlcmlmIiBmb250LXNpemU9IjE0IiBsZW5ndGhBZGp1c3Q9InNwYWNpbmciIHRleHRMZW5ndGg9IjI4IiB4PSIyNzQuMzEiIHk9Ijg4NC43NDIyIj5TaG9wPC90ZXh0PjxsaW5lIHN0eWxlPSJzdHJva2U6IzE4MTgxODtzdHJva2Utd2lkdGg6MC41OyIgeDE9IjE4Ni41NiIgeDI9IjM1Ny41NiIgeTE9Ijg5NSIgeTI9Ijg5NSIvPjxlbGxpcHNlIGN4PSIxOTYuNTYiIGN5PSI5MDcuOTkyMiIgZmlsbD0ibm9uZSIgcng9IjMiIHJ5PSIzIiBzdHlsZT0ic3Ryb2tlOiMwMzgwNDg7c3Ryb2tlLXdpZHRoOjE7Ii8+PHRleHQgZmlsbD0iIzAwMDAwMCIgZm9udC1mYW1pbHk9InNhbnMtc2VyaWYiIGZvbnQtc2l6ZT0iMTQiIGxlbmd0aEFkanVzdD0ic3BhY2luZyIgdGV4dExlbmd0aD0iNzAiIHg9IjIwNS41NiIgeT0iOTEyLjIzNDQiPmlkOiBTdHJpbmc8L3RleHQ+PGVsbGlwc2UgY3g9IjE5Ni41NiIgY3k9IjkyMi45NzY2IiBmaWxsPSJub25lIiByeD0iMyIgcnk9IjMiIHN0eWxlPSJzdHJva2U6IzAzODA0ODtzdHJva2Utd2lkdGg6MTsiLz48dGV4dCBmaWxsPSIjMDAwMDAwIiBmb250LWZhbWlseT0ic2Fucy1zZXJpZiIgZm9udC1zaXplPSIxNCIgbGVuZ3RoQWRqdXN0PSJzcGFjaW5nIiB0ZXh0TGVuZ3RoPSI4NCIgeD0iMjA1LjU2IiB5PSI5MjcuMjE4OCI+bmFtZTogU3RyaW5nPC90ZXh0PjxlbGxpcHNlIGN4PSIxOTYuNTYiIGN5PSI5MzcuOTYwOSIgZmlsbD0ibm9uZSIgcng9IjMiIHJ5PSIzIiBzdHlsZT0ic3Ryb2tlOiMwMzgwNDg7c3Ryb2tlLXdpZHRoOjE7Ii8+PHRleHQgZmlsbD0iIzAwMDAwMCIgZm9udC1mYW1pbHk9InNhbnMtc2VyaWYiIGZvbnQtc2l6ZT0iMTQiIGxlbmd0aEFkanVzdD0ic3BhY2luZyIgdGV4dExlbmd0aD0iMTA1IiB4PSIyMDUuNTYiIHk9Ijk0Mi4yMDMxIj5hZGRyZXNzOiBTdHJpbmc8L3RleHQ+PGVsbGlwc2UgY3g9IjE5Ni41NiIgY3k9Ijk1Mi45NDUzIiBmaWxsPSJub25lIiByeD0iMyIgcnk9IjMiIHN0eWxlPSJzdHJva2U6IzAzODA0ODtzdHJva2Utd2lkdGg6MTsiLz48dGV4dCBmaWxsPSIjMDAwMDAwIiBmb250LWZhbWlseT0ic2Fucy1zZXJpZiIgZm9udC1zaXplPSIxNCIgbGVuZ3RoQWRqdXN0PSJzcGFjaW5nIiB0ZXh0TGVuZ3RoPSI5MSIgeD0iMjA1LjU2IiB5PSI5NTcuMTg3NSI+cmF0aW5nOiBGbG9hdDwvdGV4dD48ZWxsaXBzZSBjeD0iMTk2LjU2IiBjeT0iOTY3LjkyOTciIGZpbGw9Im5vbmUiIHJ4PSIzIiByeT0iMyIgc3R5bGU9InN0cm9rZTojMDM4MDQ4O3N0cm9rZS13aWR0aDoxOyIvPjx0ZXh0IGZpbGw9IiMwMDAwMDAiIGZvbnQtZmFtaWx5PSJzYW5zLXNlcmlmIiBmb250LXNpemU9IjE0IiBsZW5ndGhBZGp1c3Q9InNwYWNpbmciIHRleHRMZW5ndGg9IjE0NyIgeD0iMjA1LjU2IiB5PSI5NzIuMTcxOSI+YnVzaW5lc3NIb3VyczogU3RyaW5nPC90ZXh0PjxsaW5lIHN0eWxlPSJzdHJva2U6IzE4MTgxODtzdHJva2Utd2lkdGg6MC41OyIgeDE9IjE4Ni41NiIgeDI9IjM1Ny41NiIgeTE9Ijk3Ny45MjE5IiB5Mj0iOTc3LjkyMTkiLz48ZWxsaXBzZSBjeD0iMTk2LjU2IiBjeT0iOTkwLjkxNDEiIGZpbGw9IiM4NEJFODQiIHJ4PSIzIiByeT0iMyIgc3R5bGU9InN0cm9rZTojMDM4MDQ4O3N0cm9rZS13aWR0aDoxOyIvPjx0ZXh0IGZpbGw9IiMwMDAwMDAiIGZvbnQtZmFtaWx5PSJzYW5zLXNlcmlmIiBmb250LXNpemU9IjE0IiBsZW5ndGhBZGp1c3Q9InNwYWNpbmciIHRleHRMZW5ndGg9Ijg0IiB4PSIyMDUuNTYiIHk9Ijk5NS4xNTYzIj51cGRhdGVJbmZvKCk8L3RleHQ+PC9nPjwhLS1jbGFzcyBDb3Vwb24tLT48ZyBjbGFzcz0iZW50aXR5IiBkYXRhLWVudGl0eT0iQ291cG9uIiBkYXRhLXNvdXJjZS1saW5lPSIzNyIgZGF0YS11aWQ9ImVudDAwMDgiIGlkPSJlbnRpdHlfQ291cG9uIj48cmVjdCBmaWxsPSIjRjFGMUYxIiBoZWlnaHQ9IjEwNy45Mzc1IiByeD0iMi41IiByeT0iMi41IiBzdHlsZT0ic3Ryb2tlOiMxODE4MTg7c3Ryb2tlLXdpZHRoOjAuNTsiIHdpZHRoPSIxNTIiIHg9IjE5Ni4wNiIgeT0iMTA3NiIvPjxlbGxpcHNlIGN4PSIyNDYuODEiIGN5PSIxMDkyIiBmaWxsPSIjQUREMUIyIiByeD0iMTEiIHJ5PSIxMSIgc3R5bGU9InN0cm9rZTojMTgxODE4O3N0cm9rZS13aWR0aDoxOyIvPjxwYXRoIGQ9Ik0yNDQuNDM1LDEwOTYuMjUgTDI0NC40MzUsMTA5OCBMMjQ5LjM3MjUsMTA5OCBMMjQ5LjM3MjUsMTA5Ni4yNSBMMjQ0LjQzNSwxMDk2LjI1IFogTTI0NS4xMjI1LDEwOTYuOTM3NSBRMjQ1LjEyMjUsMTA5Ni45Mzc1IDI0NS4xMjI1LDEwODcuNzUgTDI0My4zNzI1LDEwODcuNzUgUTI0My4zNzI1LDEwODcuNzUgMjQzLjM3MjUsMTA5Ni45Mzc1IEwyNDUuMTIyNSwxMDk2LjkzNzUgWiBNMjQ4LjY4NSwxMDk2LjkzNzUgTDI1MC40MzUsMTA5Ni45Mzc1IFEyNTAuNDM1LDEwOTYuOTM3NSAyNTAuNDM1LDEwOTQuMTI1IEwyNDguNjg1LDEwOTQuMTI1IFEyNDguNjg1LDEwOTQuMTI1IDI0OC42ODUsMTA5Ni45Mzc1IFogTTI0OC42ODUsMTA4Ny43NSBRMjQ4LjY4NSwxMDg3Ljc1IDI0OC42ODUsMTA5MC41NjI1IEwyNTAuNDM1LDEwOTAuNTYyNSBRMjUwLjQzNSwxMDkwLjU2MjUgMjUwLjQzNSwxMDg3Ljc1IEwyNDguNjg1LDEwODcuNzUgWiBNMjQ0LjQzNSwxMDg4LjQzNzUgTDI0OS4zNzI1LDEwODguNDM3NSBMMjQ5LjM3MjUsMTA4Ni42ODc1IEwyNDQuNDM1LDEwODYuNjg3NSBMMjQ0LjQzNSwxMDg4LjQzNzUgWiAiIGZpbGw9IiMwMDAwMDAiLz48dGV4dCBmaWxsPSIjMDAwMDAwIiBmb250LWZhbWlseT0ic2Fucy1zZXJpZiIgZm9udC1zaXplPSIxNCIgbGVuZ3RoQWRqdXN0PSJzcGFjaW5nIiB0ZXh0TGVuZ3RoPSI0MiIgeD0iMjY3LjMxIiB5PSIxMDk3Ljc0MjIiPkNvdXBvbjwvdGV4dD48bGluZSBzdHlsZT0ic3Ryb2tlOiMxODE4MTg7c3Ryb2tlLXdpZHRoOjAuNTsiIHgxPSIxOTcuMDYiIHgyPSIzNDcuMDYiIHkxPSIxMTA4IiB5Mj0iMTEwOCIvPjxlbGxpcHNlIGN4PSIyMDcuMDYiIGN5PSIxMTIwLjk5MjIiIGZpbGw9Im5vbmUiIHJ4PSIzIiByeT0iMyIgc3R5bGU9InN0cm9rZTojMDM4MDQ4O3N0cm9rZS13aWR0aDoxOyIvPjx0ZXh0IGZpbGw9IiMwMDAwMDAiIGZvbnQtZmFtaWx5PSJzYW5zLXNlcmlmIiBmb250LXNpemU9IjE0IiBsZW5ndGhBZGp1c3Q9InNwYWNpbmciIHRleHRMZW5ndGg9IjcwIiB4PSIyMTYuMDYiIHk9IjExMjUuMjM0NCI+aWQ6IFN0cmluZzwvdGV4dD48ZWxsaXBzZSBjeD0iMjA3LjA2IiBjeT0iMTEzNS45NzY2IiBmaWxsPSJub25lIiByeD0iMyIgcnk9IjMiIHN0eWxlPSJzdHJva2U6IzAzODA0ODtzdHJva2Utd2lkdGg6MTsiLz48dGV4dCBmaWxsPSIjMDAwMDAwIiBmb250LWZhbWlseT0ic2Fucy1zZXJpZiIgZm9udC1zaXplPSIxNCIgbGVuZ3RoQWRqdXN0PSJzcGFjaW5nIiB0ZXh0TGVuZ3RoPSI5MSIgeD0iMjE2LjA2IiB5PSIxMTQwLjIxODgiPmFtb3VudDogRmxvYXQ8L3RleHQ+PGVsbGlwc2UgY3g9IjIwNy4wNiIgY3k9IjExNTAuOTYwOSIgZmlsbD0ibm9uZSIgcng9IjMiIHJ5PSIzIiBzdHlsZT0ic3Ryb2tlOiMwMzgwNDg7c3Ryb2tlLXdpZHRoOjE7Ii8+PHRleHQgZmlsbD0iIzAwMDAwMCIgZm9udC1mYW1pbHk9InNhbnMtc2VyaWYiIGZvbnQtc2l6ZT0iMTQiIGxlbmd0aEFkanVzdD0ic3BhY2luZyIgdGV4dExlbmd0aD0iMTEyIiB4PSIyMTYuMDYiIHk9IjExNTUuMjAzMSI+ZXhwaXJlRGF0ZTogRGF0ZTwvdGV4dD48ZWxsaXBzZSBjeD0iMjA3LjA2IiBjeT0iMTE2NS45NDUzIiBmaWxsPSJub25lIiByeD0iMyIgcnk9IjMiIHN0eWxlPSJzdHJva2U6IzAzODA0ODtzdHJva2Utd2lkdGg6MTsiLz48dGV4dCBmaWxsPSIjMDAwMDAwIiBmb250LWZhbWlseT0ic2Fucy1zZXJpZiIgZm9udC1zaXplPSIxNCIgbGVuZ3RoQWRqdXN0PSJzcGFjaW5nIiB0ZXh0TGVuZ3RoPSIxMjYiIHg9IjIxNi4wNiIgeT0iMTE3MC4xODc1Ij5jb25kaXRpb25zOiBTdHJpbmc8L3RleHQ+PGxpbmUgc3R5bGU9InN0cm9rZTojMTgxODE4O3N0cm9rZS13aWR0aDowLjU7IiB4MT0iMTk3LjA2IiB4Mj0iMzQ3LjA2IiB5MT0iMTE3NS45Mzc1IiB5Mj0iMTE3NS45Mzc1Ii8+PC9nPjwhLS1jbGFzcyBSZXZpZXctLT48ZyBjbGFzcz0iZW50aXR5IiBkYXRhLWVudGl0eT0iUmV2aWV3IiBkYXRhLXNvdXJjZS1saW5lPSI0OSIgZGF0YS11aWQ9ImVudDAwMTIiIGlkPSJlbnRpdHlfUmV2aWV3Ij48cmVjdCBmaWxsPSIjRjFGMUYxIiBoZWlnaHQ9IjEzNy45MDYzIiByeD0iMi41IiByeT0iMi41IiBzdHlsZT0ic3Ryb2tlOiMxODE4MTg7c3Ryb2tlLXdpZHRoOjAuNTsiIHdpZHRoPSIxNzMiIHg9IjEwNC41NiIgeT0iNjUwIi8+PGVsbGlwc2UgY3g9IjE2NS44MSIgY3k9IjY2NiIgZmlsbD0iI0FERDFCMiIgcng9IjExIiByeT0iMTEiIHN0eWxlPSJzdHJva2U6IzE4MTgxODtzdHJva2Utd2lkdGg6MTsiLz48cGF0aCBkPSJNMTYzLjQzNSw2NzAuMjUgTDE2My40MzUsNjcyIEwxNjguMzcyNSw2NzIgTDE2OC4zNzI1LDY3MC4yNSBMMTYzLjQzNSw2NzAuMjUgWiBNMTY0LjEyMjUsNjcwLjkzNzUgUTE2NC4xMjI1LDY3MC45Mzc1IDE2NC4xMjI1LDY2MS43NSBMMTYyLjM3MjUsNjYxLjc1IFExNjIuMzcyNSw2NjEuNzUgMTYyLjM3MjUsNjcwLjkzNzUgTDE2NC4xMjI1LDY3MC45Mzc1IFogTTE2Ny42ODUsNjcwLjkzNzUgTDE2OS40MzUsNjcwLjkzNzUgUTE2OS40MzUsNjcwLjkzNzUgMTY5LjQzNSw2NjguMTI1IEwxNjcuNjg1LDY2OC4xMjUgUTE2Ny42ODUsNjY4LjEyNSAxNjcuNjg1LDY3MC45Mzc1IFogTTE2Ny42ODUsNjYxLjc1IFExNjcuNjg1LDY2MS43NSAxNjcuNjg1LDY2NC41NjI1IEwxNjkuNDM1LDY2NC41NjI1IFExNjkuNDM1LDY2NC41NjI1IDE2OS40MzUsNjYxLjc1IEwxNjcuNjg1LDY2MS43NSBaIE0xNjMuNDM1LDY2Mi40Mzc1IEwxNjguMzcyNSw2NjIuNDM3NSBMMTY4LjM3MjUsNjYwLjY4NzUgTDE2My40MzUsNjYwLjY4NzUgTDE2My40MzUsNjYyLjQzNzUgWiAiIGZpbGw9IiMwMDAwMDAiLz48dGV4dCBmaWxsPSIjMDAwMDAwIiBmb250LWZhbWlseT0ic2Fucy1zZXJpZiIgZm9udC1zaXplPSIxNCIgbGVuZ3RoQWRqdXN0PSJzcGFjaW5nIiB0ZXh0TGVuZ3RoPSI0MiIgeD0iMTg2LjMxIiB5PSI2NzEuNzQyMiI+UmV2aWV3PC90ZXh0PjxsaW5lIHN0eWxlPSJzdHJva2U6IzE4MTgxODtzdHJva2Utd2lkdGg6MC41OyIgeDE9IjEwNS41NiIgeDI9IjI3Ni41NiIgeTE9IjY4MiIgeTI9IjY4MiIvPjxlbGxpcHNlIGN4PSIxMTUuNTYiIGN5PSI2OTQuOTkyMiIgZmlsbD0ibm9uZSIgcng9IjMiIHJ5PSIzIiBzdHlsZT0ic3Ryb2tlOiMwMzgwNDg7c3Ryb2tlLXdpZHRoOjE7Ii8+PHRleHQgZmlsbD0iIzAwMDAwMCIgZm9udC1mYW1pbHk9InNhbnMtc2VyaWYiIGZvbnQtc2l6ZT0iMTQiIGxlbmd0aEFkanVzdD0ic3BhY2luZyIgdGV4dExlbmd0aD0iNzAiIHg9IjEyNC41NiIgeT0iNjk5LjIzNDQiPmlkOiBTdHJpbmc8L3RleHQ+PGVsbGlwc2UgY3g9IjExNS41NiIgY3k9IjcwOS45NzY2IiBmaWxsPSJub25lIiByeD0iMyIgcnk9IjMiIHN0eWxlPSJzdHJva2U6IzAzODA0ODtzdHJva2Utd2lkdGg6MTsiLz48dGV4dCBmaWxsPSIjMDAwMDAwIiBmb250LWZhbWlseT0ic2Fucy1zZXJpZiIgZm9udC1zaXplPSIxNCIgbGVuZ3RoQWRqdXN0PSJzcGFjaW5nIiB0ZXh0TGVuZ3RoPSIxMDUiIHg9IjEyNC41NiIgeT0iNzE0LjIxODgiPmNvbnRlbnQ6IFN0cmluZzwvdGV4dD48ZWxsaXBzZSBjeD0iMTE1LjU2IiBjeT0iNzI0Ljk2MDkiIGZpbGw9Im5vbmUiIHJ4PSIzIiByeT0iMyIgc3R5bGU9InN0cm9rZTojMDM4MDQ4O3N0cm9rZS13aWR0aDoxOyIvPjx0ZXh0IGZpbGw9IiMwMDAwMDAiIGZvbnQtZmFtaWx5PSJzYW5zLXNlcmlmIiBmb250LXNpemU9IjE0IiBsZW5ndGhBZGp1c3Q9InNwYWNpbmciIHRleHRMZW5ndGg9IjE0MCIgeD0iMTI0LjU2IiB5PSI3MjkuMjAzMSI+aW1hZ2VzOiBMaXN0Jmx0O1N0cmluZyZndDs8L3RleHQ+PGVsbGlwc2UgY3g9IjExNS41NiIgY3k9IjczOS45NDUzIiBmaWxsPSJub25lIiByeD0iMyIgcnk9IjMiIHN0eWxlPSJzdHJva2U6IzAzODA0ODtzdHJva2Utd2lkdGg6MTsiLz48dGV4dCBmaWxsPSIjMDAwMDAwIiBmb250LWZhbWlseT0ic2Fucy1zZXJpZiIgZm9udC1zaXplPSIxNCIgbGVuZ3RoQWRqdXN0PSJzcGFjaW5nIiB0ZXh0TGVuZ3RoPSI5MSIgeD0iMTI0LjU2IiB5PSI3NDQuMTg3NSI+dmlkZW86IFN0cmluZzwvdGV4dD48bGluZSBzdHlsZT0ic3Ryb2tlOiMxODE4MTg7c3Ryb2tlLXdpZHRoOjAuNTsiIHgxPSIxMDUuNTYiIHgyPSIyNzYuNTYiIHkxPSI3NDkuOTM3NSIgeTI9Ijc0OS45Mzc1Ii8+PGVsbGlwc2UgY3g9IjExNS41NiIgY3k9Ijc2Mi45Mjk3IiBmaWxsPSIjODRCRTg0IiByeD0iMyIgcnk9IjMiIHN0eWxlPSJzdHJva2U6IzAzODA0ODtzdHJva2Utd2lkdGg6MTsiLz48dGV4dCBmaWxsPSIjMDAwMDAwIiBmb250LWZhbWlseT0ic2Fucy1zZXJpZiIgZm9udC1zaXplPSIxNCIgbGVuZ3RoQWRqdXN0PSJzcGFjaW5nIiB0ZXh0TGVuZ3RoPSIxNDciIHg9IjEyNC41NiIgeT0iNzY3LjE3MTkiPnJhdGluZzogSW50ZWdlciAoMS01KTwvdGV4dD48ZWxsaXBzZSBjeD0iMTE1LjU2IiBjeT0iNzc3LjkxNDEiIGZpbGw9IiM4NEJFODQiIHJ4PSIzIiByeT0iMyIgc3R5bGU9InN0cm9rZTojMDM4MDQ4O3N0cm9rZS13aWR0aDoxOyIvPjx0ZXh0IGZpbGw9IiMwMDAwMDAiIGZvbnQtZmFtaWx5PSJzYW5zLXNlcmlmIiBmb250LXNpemU9IjE0IiBsZW5ndGhBZGp1c3Q9InNwYWNpbmciIHRleHRMZW5ndGg9IjYzIiB4PSIxMjQuNTYiIHk9Ijc4Mi4xNTYzIj5wdWJsaXNoKCk8L3RleHQ+PC9nPjwhLS1jbGFzcyBCbG9nLS0+PGcgY2xhc3M9ImVudGl0eSIgZGF0YS1lbnRpdHk9IkJsb2ciIGRhdGEtc291cmNlLWxpbmU9IjU4IiBkYXRhLXVpZD0iZW50MDAxMyIgaWQ9ImVudGl0eV9CbG9nIj48cmVjdCBmaWxsPSIjRjFGMUYxIiBoZWlnaHQ9IjEzNy45MDYzIiByeD0iMi41IiByeT0iMi41IiBzdHlsZT0ic3Ryb2tlOiMxODE4MTg7c3Ryb2tlLXdpZHRoOjAuNTsiIHdpZHRoPSIyMTUiIHg9IjMxMi41NiIgeT0iNjUwIi8+PGVsbGlwc2UgY3g9IjQwMS44MSIgY3k9IjY2NiIgZmlsbD0iI0FERDFCMiIgcng9IjExIiByeT0iMTEiIHN0eWxlPSJzdHJva2U6IzE4MTgxODtzdHJva2Utd2lkdGg6MTsiLz48cGF0aCBkPSJNMzk5LjQzNSw2NzAuMjUgTDM5OS40MzUsNjcyIEw0MDQuMzcyNSw2NzIgTDQwNC4zNzI1LDY3MC4yNSBMMzk5LjQzNSw2NzAuMjUgWiBNNDAwLjEyMjUsNjcwLjkzNzUgUTQwMC4xMjI1LDY3MC45Mzc1IDQwMC4xMjI1LDY2MS43NSBMMzk4LjM3MjUsNjYxLjc1IFEzOTguMzcyNSw2NjEuNzUgMzk4LjM3MjUsNjcwLjkzNzUgTDQwMC4xMjI1LDY3MC45Mzc1IFogTTQwMy42ODUsNjcwLjkzNzUgTDQwNS40MzUsNjcwLjkzNzUgUTQwNS40MzUsNjcwLjkzNzUgNDA1LjQzNSw2NjguMTI1IEw0MDMuNjg1LDY2OC4xMjUgUTQwMy42ODUsNjY4LjEyNSA0MDMuNjg1LDY3MC45Mzc1IFogTTQwMy42ODUsNjYxLjc1IFE0MDMuNjg1LDY2MS43NSA0MDMuNjg1LDY2NC41NjI1IEw0MDUuNDM1LDY2NC41NjI1IFE0MDUuNDM1LDY2NC41NjI1IDQwNS40MzUsNjYxLjc1IEw0MDMuNjg1LDY2MS43NSBaIE0zOTkuNDM1LDY2Mi40Mzc1IEw0MDQuMzcyNSw2NjIuNDM3NSBMNDA0LjM3MjUsNjYwLjY4NzUgTDM5OS40MzUsNjYwLjY4NzUgTDM5OS40MzUsNjYyLjQzNzUgWiAiIGZpbGw9IiMwMDAwMDAiLz48dGV4dCBmaWxsPSIjMDAwMDAwIiBmb250LWZhbWlseT0ic2Fucy1zZXJpZiIgZm9udC1zaXplPSIxNCIgbGVuZ3RoQWRqdXN0PSJzcGFjaW5nIiB0ZXh0TGVuZ3RoPSIyOCIgeD0iNDIyLjMxIiB5PSI2NzEuNzQyMiI+QmxvZzwvdGV4dD48bGluZSBzdHlsZT0ic3Ryb2tlOiMxODE4MTg7c3Ryb2tlLXdpZHRoOjAuNTsiIHgxPSIzMTMuNTYiIHgyPSI1MjYuNTYiIHkxPSI2ODIiIHkyPSI2ODIiLz48ZWxsaXBzZSBjeD0iMzIzLjU2IiBjeT0iNjk0Ljk5MjIiIGZpbGw9Im5vbmUiIHJ4PSIzIiByeT0iMyIgc3R5bGU9InN0cm9rZTojMDM4MDQ4O3N0cm9rZS13aWR0aDoxOyIvPjx0ZXh0IGZpbGw9IiMwMDAwMDAiIGZvbnQtZmFtaWx5PSJzYW5zLXNlcmlmIiBmb250LXNpemU9IjE0IiBsZW5ndGhBZGp1c3Q9InNwYWNpbmciIHRleHRMZW5ndGg9IjcwIiB4PSIzMzIuNTYiIHk9IjY5OS4yMzQ0Ij5pZDogU3RyaW5nPC90ZXh0PjxlbGxpcHNlIGN4PSIzMjMuNTYiIGN5PSI3MDkuOTc2NiIgZmlsbD0ibm9uZSIgcng9IjMiIHJ5PSIzIiBzdHlsZT0ic3Ryb2tlOiMwMzgwNDg7c3Ryb2tlLXdpZHRoOjE7Ii8+PHRleHQgZmlsbD0iIzAwMDAwMCIgZm9udC1mYW1pbHk9InNhbnMtc2VyaWYiIGZvbnQtc2l6ZT0iMTQiIGxlbmd0aEFkanVzdD0ic3BhY2luZyIgdGV4dExlbmd0aD0iMTA1IiB4PSIzMzIuNTYiIHk9IjcxNC4yMTg4Ij5jb250ZW50OiBTdHJpbmc8L3RleHQ+PGVsbGlwc2UgY3g9IjMyMy41NiIgY3k9IjcyNC45NjA5IiBmaWxsPSJub25lIiByeD0iMyIgcnk9IjMiIHN0eWxlPSJzdHJva2U6IzAzODA0ODtzdHJva2Utd2lkdGg6MTsiLz48dGV4dCBmaWxsPSIjMDAwMDAwIiBmb250LWZhbWlseT0ic2Fucy1zZXJpZiIgZm9udC1zaXplPSIxNCIgbGVuZ3RoQWRqdXN0PSJzcGFjaW5nIiB0ZXh0TGVuZ3RoPSIxNDAiIHg9IjMzMi41NiIgeT0iNzI5LjIwMzEiPmltYWdlczogTGlzdCZsdDtTdHJpbmcmZ3Q7PC90ZXh0PjxlbGxpcHNlIGN4PSIzMjMuNTYiIGN5PSI3MzkuOTQ1MyIgZmlsbD0ibm9uZSIgcng9IjMiIHJ5PSIzIiBzdHlsZT0ic3Ryb2tlOiMwMzgwNDg7c3Ryb2tlLXdpZHRoOjE7Ii8+PHRleHQgZmlsbD0iIzAwMDAwMCIgZm9udC1mYW1pbHk9InNhbnMtc2VyaWYiIGZvbnQtc2l6ZT0iMTQiIGxlbmd0aEFkanVzdD0ic3BhY2luZyIgdGV4dExlbmd0aD0iOTEiIHg9IjMzMi41NiIgeT0iNzQ0LjE4NzUiPnZpZGVvOiBTdHJpbmc8L3RleHQ+PGxpbmUgc3R5bGU9InN0cm9rZTojMTgxODE4O3N0cm9rZS13aWR0aDowLjU7IiB4MT0iMzEzLjU2IiB4Mj0iNTI2LjU2IiB5MT0iNzQ5LjkzNzUiIHkyPSI3NDkuOTM3NSIvPjxlbGxpcHNlIGN4PSIzMjMuNTYiIGN5PSI3NjIuOTI5NyIgZmlsbD0iIzg0QkU4NCIgcng9IjMiIHJ5PSIzIiBzdHlsZT0ic3Ryb2tlOiMwMzgwNDg7c3Ryb2tlLXdpZHRoOjE7Ii8+PHRleHQgZmlsbD0iIzAwMDAwMCIgZm9udC1mYW1pbHk9InNhbnMtc2VyaWYiIGZvbnQtc2l6ZT0iMTQiIGxlbmd0aEFkanVzdD0ic3BhY2luZyIgdGV4dExlbmd0aD0iMTg5IiB4PSIzMzIuNTYiIHk9Ijc2Ny4xNzE5Ij5sb2NhdGlvbjogU3RyaW5nICgmIzIyMzIwOyYjMjk3MDI7JiMyMDMwMTsmIzMyNjIyOyk8L3RleHQ+PGVsbGlwc2UgY3g9IjMyMy41NiIgY3k9Ijc3Ny45MTQxIiBmaWxsPSIjODRCRTg0IiByeD0iMyIgcnk9IjMiIHN0eWxlPSJzdHJva2U6IzAzODA0ODtzdHJva2Utd2lkdGg6MTsiLz48dGV4dCBmaWxsPSIjMDAwMDAwIiBmb250LWZhbWlseT0ic2Fucy1zZXJpZiIgZm9udC1zaXplPSIxNCIgbGVuZ3RoQWRqdXN0PSJzcGFjaW5nIiB0ZXh0TGVuZ3RoPSI2MyIgeD0iMzMyLjU2IiB5PSI3ODIuMTU2MyI+cHVibGlzaCgpPC90ZXh0PjwvZz48IS0tY2xhc3MgRm9sbG93LS0+PGcgY2xhc3M9ImVudGl0eSIgZGF0YS1lbnRpdHk9IkZvbGxvdyIgZGF0YS1zb3VyY2UtbGluZT0iNzMiIGRhdGEtdWlkPSJlbnQwMDE4IiBpZD0iZW50aXR5X0ZvbGxvdyI+PHJlY3QgZmlsbD0iI0YxRjFGMSIgaGVpZ2h0PSI3Ny45Njg4IiByeD0iMi41IiByeT0iMi41IiBzdHlsZT0ic3Ryb2tlOiMxODE4MTg7c3Ryb2tlLXdpZHRoOjAuNTsiIHdpZHRoPSIyMjkiIHg9IjU2Mi41NiIgeT0iNjgwIi8+PGVsbGlwc2UgY3g9IjY1MS44MSIgY3k9IjY5NiIgZmlsbD0iI0FERDFCMiIgcng9IjExIiByeT0iMTEiIHN0eWxlPSJzdHJva2U6IzE4MTgxODtzdHJva2Utd2lkdGg6MTsiLz48cGF0aCBkPSJNNjQ5LjQzNSw3MDAuMjUgTDY0OS40MzUsNzAyIEw2NTQuMzcyNSw3MDIgTDY1NC4zNzI1LDcwMC4yNSBMNjQ5LjQzNSw3MDAuMjUgWiBNNjUwLjEyMjUsNzAwLjkzNzUgUTY1MC4xMjI1LDcwMC45Mzc1IDY1MC4xMjI1LDY5MS43NSBMNjQ4LjM3MjUsNjkxLjc1IFE2NDguMzcyNSw2OTEuNzUgNjQ4LjM3MjUsNzAwLjkzNzUgTDY1MC4xMjI1LDcwMC45Mzc1IFogTTY1My42ODUsNzAwLjkzNzUgTDY1NS40MzUsNzAwLjkzNzUgUTY1NS40MzUsNzAwLjkzNzUgNjU1LjQzNSw2OTguMTI1IEw2NTMuNjg1LDY5OC4xMjUgUTY1My42ODUsNjk4LjEyNSA2NTMuNjg1LDcwMC45Mzc1IFogTTY1My42ODUsNjkxLjc1IFE2NTMuNjg1LDY5MS43NSA2NTMuNjg1LDY5NC41NjI1IEw2NTUuNDM1LDY5NC41NjI1IFE2NTUuNDM1LDY5NC41NjI1IDY1NS40MzUsNjkxLjc1IEw2NTMuNjg1LDY5MS43NSBaIE02NDkuNDM1LDY5Mi40Mzc1IEw2NTQuMzcyNSw2OTIuNDM3NSBMNjU0LjM3MjUsNjkwLjY4NzUgTDY0OS40MzUsNjkwLjY4NzUgTDY0OS40MzUsNjkyLjQzNzUgWiAiIGZpbGw9IiMwMDAwMDAiLz48dGV4dCBmaWxsPSIjMDAwMDAwIiBmb250LWZhbWlseT0ic2Fucy1zZXJpZiIgZm9udC1zaXplPSIxNCIgbGVuZ3RoQWRqdXN0PSJzcGFjaW5nIiB0ZXh0TGVuZ3RoPSI0MiIgeD0iNjcyLjMxIiB5PSI3MDEuNzQyMiI+Rm9sbG93PC90ZXh0PjxsaW5lIHN0eWxlPSJzdHJva2U6IzE4MTgxODtzdHJva2Utd2lkdGg6MC41OyIgeDE9IjU2My41NiIgeDI9Ijc5MC41NiIgeTE9IjcxMiIgeTI9IjcxMiIvPjxsaW5lIHN0eWxlPSJzdHJva2U6IzE4MTgxODtzdHJva2Utd2lkdGg6MC41OyIgeDE9IjU2My41NiIgeDI9Ijc5MC41NiIgeTE9IjcyMCIgeTI9IjcyMCIvPjxlbGxpcHNlIGN4PSI1NzMuNTYiIGN5PSI3MzIuOTkyMiIgZmlsbD0iIzg0QkU4NCIgcng9IjMiIHJ5PSIzIiBzdHlsZT0ic3Ryb2tlOiMwMzgwNDg7c3Ryb2tlLXdpZHRoOjE7Ii8+PHRleHQgZmlsbD0iIzAwMDAwMCIgZm9udC1mYW1pbHk9InNhbnMtc2VyaWYiIGZvbnQtc2l6ZT0iMTQiIGxlbmd0aEFkanVzdD0ic3BhY2luZyIgdGV4dExlbmd0aD0iMTg5IiB4PSI1ODIuNTYiIHk9IjczNy4yMzQ0Ij5mb2xsb3dlcklkOiBTdHJpbmcgKCYjMjA4NTE7JiMyNzg4MDsmIzMyNzczOyk8L3RleHQ+PGVsbGlwc2UgY3g9IjU3My41NiIgY3k9Ijc0Ny45NzY2IiBmaWxsPSIjODRCRTg0IiByeD0iMyIgcnk9IjMiIHN0eWxlPSJzdHJva2U6IzAzODA0ODtzdHJva2Utd2lkdGg6MTsiLz48dGV4dCBmaWxsPSIjMDAwMDAwIiBmb250LWZhbWlseT0ic2Fucy1zZXJpZiIgZm9udC1zaXplPSIxNCIgbGVuZ3RoQWRqdXN0PSJzcGFjaW5nIiB0ZXh0TGVuZ3RoPSIyMDMiIHg9IjU4Mi41NiIgeT0iNzUyLjIxODgiPmZvbGxvd2VkSWQ6IFN0cmluZyAoJiMzNDk4NzsmIzIwODUxOyYjMjc4ODA7JiMzMjc3MzspPC90ZXh0PjwvZz48IS0tY2xhc3MgTGlrZS0tPjxnIGNsYXNzPSJlbnRpdHkiIGRhdGEtZW50aXR5PSJMaWtlIiBkYXRhLXNvdXJjZS1saW5lPSI3OCIgZGF0YS11aWQ9ImVudDAwMTkiIGlkPSJlbnRpdHlfTGlrZSI+PHJlY3QgZmlsbD0iI0YxRjFGMSIgaGVpZ2h0PSI3Ny45Njg4IiByeD0iMi41IiByeT0iMi41IiBzdHlsZT0ic3Ryb2tlOiMxODE4MTg7c3Ryb2tlLXdpZHRoOjAuNTsiIHdpZHRoPSIxMjQiIHg9IjgyNy4wNiIgeT0iNjgwIi8+PGVsbGlwc2UgY3g9Ijg3MC44NiIgY3k9IjY5NiIgZmlsbD0iI0FERDFCMiIgcng9IjExIiByeT0iMTEiIHN0eWxlPSJzdHJva2U6IzE4MTgxODtzdHJva2Utd2lkdGg6MTsiLz48cGF0aCBkPSJNODY4LjQ4NSw3MDAuMjUgTDg2OC40ODUsNzAyIEw4NzMuNDIyNSw3MDIgTDg3My40MjI1LDcwMC4yNSBMODY4LjQ4NSw3MDAuMjUgWiBNODY5LjE3MjUsNzAwLjkzNzUgUTg2OS4xNzI1LDcwMC45Mzc1IDg2OS4xNzI1LDY5MS43NSBMODY3LjQyMjUsNjkxLjc1IFE4NjcuNDIyNSw2OTEuNzUgODY3LjQyMjUsNzAwLjkzNzUgTDg2OS4xNzI1LDcwMC45Mzc1IFogTTg3Mi43MzUsNzAwLjkzNzUgTDg3NC40ODUsNzAwLjkzNzUgUTg3NC40ODUsNzAwLjkzNzUgODc0LjQ4NSw2OTguMTI1IEw4NzIuNzM1LDY5OC4xMjUgUTg3Mi43MzUsNjk4LjEyNSA4NzIuNzM1LDcwMC45Mzc1IFogTTg3Mi43MzUsNjkxLjc1IFE4NzIuNzM1LDY5MS43NSA4NzIuNzM1LDY5NC41NjI1IEw4NzQuNDg1LDY5NC41NjI1IFE4NzQuNDg1LDY5NC41NjI1IDg3NC40ODUsNjkxLjc1IEw4NzIuNzM1LDY5MS43NSBaIE04NjguNDg1LDY5Mi40Mzc1IEw4NzMuNDIyNSw2OTIuNDM3NSBMODczLjQyMjUsNjkwLjY4NzUgTDg2OC40ODUsNjkwLjY4NzUgTDg2OC40ODUsNjkyLjQzNzUgWiAiIGZpbGw9IiMwMDAwMDAiLz48dGV4dCBmaWxsPSIjMDAwMDAwIiBmb250LWZhbWlseT0ic2Fucy1zZXJpZiIgZm9udC1zaXplPSIxNCIgbGVuZ3RoQWRqdXN0PSJzcGFjaW5nIiB0ZXh0TGVuZ3RoPSIyOCIgeD0iODkxLjI2IiB5PSI3MDEuNzQyMiI+TGlrZTwvdGV4dD48bGluZSBzdHlsZT0ic3Ryb2tlOiMxODE4MTg7c3Ryb2tlLXdpZHRoOjAuNTsiIHgxPSI4MjguMDYiIHgyPSI5NTAuMDYiIHkxPSI3MTIiIHkyPSI3MTIiLz48ZWxsaXBzZSBjeD0iODM4LjA2IiBjeT0iNzI0Ljk5MjIiIGZpbGw9Im5vbmUiIHJ4PSIzIiByeT0iMyIgc3R5bGU9InN0cm9rZTojMDM4MDQ4O3N0cm9rZS13aWR0aDoxOyIvPjx0ZXh0IGZpbGw9IiMwMDAwMDAiIGZvbnQtZmFtaWx5PSJzYW5zLXNlcmlmIiBmb250LXNpemU9IjE0IiBsZW5ndGhBZGp1c3Q9InNwYWNpbmciIHRleHRMZW5ndGg9Ijk4IiB4PSI4NDcuMDYiIHk9IjcyOS4yMzQ0Ij51c2VySWQ6IFN0cmluZzwvdGV4dD48ZWxsaXBzZSBjeD0iODM4LjA2IiBjeT0iNzM5Ljk3NjYiIGZpbGw9Im5vbmUiIHJ4PSIzIiByeT0iMyIgc3R5bGU9InN0cm9rZTojMDM4MDQ4O3N0cm9rZS13aWR0aDoxOyIvPjx0ZXh0IGZpbGw9IiMwMDAwMDAiIGZvbnQtZmFtaWx5PSJzYW5zLXNlcmlmIiBmb250LXNpemU9IjE0IiBsZW5ndGhBZGp1c3Q9InNwYWNpbmciIHRleHRMZW5ndGg9Ijk4IiB4PSI4NDcuMDYiIHk9Ijc0NC4yMTg4Ij5ibG9nSWQ6IFN0cmluZzwvdGV4dD48bGluZSBzdHlsZT0ic3Ryb2tlOiMxODE4MTg7c3Ryb2tlLXdpZHRoOjAuNTsiIHgxPSI4MjguMDYiIHgyPSI5NTAuMDYiIHkxPSI3NDkuOTY4OCIgeTI9Ijc0OS45Njg4Ii8+PC9nPjwhLS1jbGFzcyBDb21tZW50LS0+PGcgY2xhc3M9ImVudGl0eSIgZGF0YS1lbnRpdHk9IkNvbW1lbnQiIGRhdGEtc291cmNlLWxpbmU9IjgzIiBkYXRhLXVpZD0iZW50MDAyMCIgaWQ9ImVudGl0eV9Db21tZW50Ij48cmVjdCBmaWxsPSIjRjFGMUYxIiBoZWlnaHQ9IjkyLjk1MzEiIHJ4PSIyLjUiIHJ5PSIyLjUiIHN0eWxlPSJzdHJva2U6IzE4MTgxODtzdHJva2Utd2lkdGg6MC41OyIgd2lkdGg9IjEzMSIgeD0iOTg2LjU2IiB5PSI2NzIuNSIvPjxlbGxpcHNlIGN4PSIxMDI0LjA2IiBjeT0iNjg4LjUiIGZpbGw9IiNBREQxQjIiIHJ4PSIxMSIgcnk9IjExIiBzdHlsZT0ic3Ryb2tlOiMxODE4MTg7c3Ryb2tlLXdpZHRoOjE7Ii8+PHBhdGggZD0iTTEwMjEuNjg1LDY5Mi43NSBMMTAyMS42ODUsNjk0LjUgTDEwMjYuNjIyNSw2OTQuNSBMMTAyNi42MjI1LDY5Mi43NSBMMTAyMS42ODUsNjkyLjc1IFogTTEwMjIuMzcyNSw2OTMuNDM3NSBRMTAyMi4zNzI1LDY5My40Mzc1IDEwMjIuMzcyNSw2ODQuMjUgTDEwMjAuNjIyNSw2ODQuMjUgUTEwMjAuNjIyNSw2ODQuMjUgMTAyMC42MjI1LDY5My40Mzc1IEwxMDIyLjM3MjUsNjkzLjQzNzUgWiBNMTAyNS45MzUsNjkzLjQzNzUgTDEwMjcuNjg1LDY5My40Mzc1IFExMDI3LjY4NSw2OTMuNDM3NSAxMDI3LjY4NSw2OTAuNjI1IEwxMDI1LjkzNSw2OTAuNjI1IFExMDI1LjkzNSw2OTAuNjI1IDEwMjUuOTM1LDY5My40Mzc1IFogTTEwMjUuOTM1LDY4NC4yNSBRMTAyNS45MzUsNjg0LjI1IDEwMjUuOTM1LDY4Ny4wNjI1IEwxMDI3LjY4NSw2ODcuMDYyNSBRMTAyNy42ODUsNjg3LjA2MjUgMTAyNy42ODUsNjg0LjI1IEwxMDI1LjkzNSw2ODQuMjUgWiBNMTAyMS42ODUsNjg0LjkzNzUgTDEwMjYuNjIyNSw2ODQuOTM3NSBMMTAyNi42MjI1LDY4My4xODc1IEwxMDIxLjY4NSw2ODMuMTg3NSBMMTAyMS42ODUsNjg0LjkzNzUgWiAiIGZpbGw9IiMwMDAwMDAiLz48dGV4dCBmaWxsPSIjMDAwMDAwIiBmb250LWZhbWlseT0ic2Fucy1zZXJpZiIgZm9udC1zaXplPSIxNCIgbGVuZ3RoQWRqdXN0PSJzcGFjaW5nIiB0ZXh0TGVuZ3RoPSI0OSIgeD0iMTA0My4wNiIgeT0iNjk0LjI0MjIiPkNvbW1lbnQ8L3RleHQ+PGxpbmUgc3R5bGU9InN0cm9rZTojMTgxODE4O3N0cm9rZS13aWR0aDowLjU7IiB4MT0iOTg3LjU2IiB4Mj0iMTExNi41NiIgeTE9IjcwNC41IiB5Mj0iNzA0LjUiLz48ZWxsaXBzZSBjeD0iOTk3LjU2IiBjeT0iNzE3LjQ5MjIiIGZpbGw9Im5vbmUiIHJ4PSIzIiByeT0iMyIgc3R5bGU9InN0cm9rZTojMDM4MDQ4O3N0cm9rZS13aWR0aDoxOyIvPjx0ZXh0IGZpbGw9IiMwMDAwMDAiIGZvbnQtZmFtaWx5PSJzYW5zLXNlcmlmIiBmb250LXNpemU9IjE0IiBsZW5ndGhBZGp1c3Q9InNwYWNpbmciIHRleHRMZW5ndGg9Ijk4IiB4PSIxMDA2LjU2IiB5PSI3MjEuNzM0NCI+dXNlcklkOiBTdHJpbmc8L3RleHQ+PGVsbGlwc2UgY3g9Ijk5Ny41NiIgY3k9IjczMi40NzY2IiBmaWxsPSJub25lIiByeD0iMyIgcnk9IjMiIHN0eWxlPSJzdHJva2U6IzAzODA0ODtzdHJva2Utd2lkdGg6MTsiLz48dGV4dCBmaWxsPSIjMDAwMDAwIiBmb250LWZhbWlseT0ic2Fucy1zZXJpZiIgZm9udC1zaXplPSIxNCIgbGVuZ3RoQWRqdXN0PSJzcGFjaW5nIiB0ZXh0TGVuZ3RoPSI5OCIgeD0iMTAwNi41NiIgeT0iNzM2LjcxODgiPmJsb2dJZDogU3RyaW5nPC90ZXh0PjxlbGxpcHNlIGN4PSI5OTcuNTYiIGN5PSI3NDcuNDYwOSIgZmlsbD0ibm9uZSIgcng9IjMiIHJ5PSIzIiBzdHlsZT0ic3Ryb2tlOiMwMzgwNDg7c3Ryb2tlLXdpZHRoOjE7Ii8+PHRleHQgZmlsbD0iIzAwMDAwMCIgZm9udC1mYW1pbHk9InNhbnMtc2VyaWYiIGZvbnQtc2l6ZT0iMTQiIGxlbmd0aEFkanVzdD0ic3BhY2luZyIgdGV4dExlbmd0aD0iMTA1IiB4PSIxMDA2LjU2IiB5PSI3NTEuNzAzMSI+Y29udGVudDogU3RyaW5nPC90ZXh0PjxsaW5lIHN0eWxlPSJzdHJva2U6IzE4MTgxODtzdHJva2Utd2lkdGg6MC41OyIgeDE9Ijk4Ny41NiIgeDI9IjExMTYuNTYiIHkxPSI3NTcuNDUzMSIgeTI9Ijc1Ny40NTMxIi8+PC9nPjwhLS1jbGFzcyBOb3RpZmljYXRpb24tLT48ZyBjbGFzcz0iZW50aXR5IiBkYXRhLWVudGl0eT0iTm90aWZpY2F0aW9uIiBkYXRhLXNvdXJjZS1saW5lPSI4OSIgZGF0YS11aWQ9ImVudDAwMjEiIGlkPSJlbnRpdHlfTm90aWZpY2F0aW9uIj48cmVjdCBmaWxsPSIjRjFGMUYxIiBoZWlnaHQ9IjEwNy45Mzc1IiByeD0iMi41IiByeT0iMi41IiBzdHlsZT0ic3Ryb2tlOiMxODE4MTg7c3Ryb2tlLXdpZHRoOjAuNTsiIHdpZHRoPSIyNTAiIHg9IjcxMy4wNiIgeT0iNyIvPjxlbGxpcHNlIGN4PSI3OTEuODEiIGN5PSIyMyIgZmlsbD0iI0FERDFCMiIgcng9IjExIiByeT0iMTEiIHN0eWxlPSJzdHJva2U6IzE4MTgxODtzdHJva2Utd2lkdGg6MTsiLz48cGF0aCBkPSJNNzg5LjQzNSwyNy4yNSBMNzg5LjQzNSwyOSBMNzk0LjM3MjUsMjkgTDc5NC4zNzI1LDI3LjI1IEw3ODkuNDM1LDI3LjI1IFogTTc5MC4xMjI1LDI3LjkzNzUgUTc5MC4xMjI1LDI3LjkzNzUgNzkwLjEyMjUsMTguNzUgTDc4OC4zNzI1LDE4Ljc1IFE3ODguMzcyNSwxOC43NSA3ODguMzcyNSwyNy45Mzc1IEw3OTAuMTIyNSwyNy45Mzc1IFogTTc5My42ODUsMjcuOTM3NSBMNzk1LjQzNSwyNy45Mzc1IFE3OTUuNDM1LDI3LjkzNzUgNzk1LjQzNSwyNS4xMjUgTDc5My42ODUsMjUuMTI1IFE3OTMuNjg1LDI1LjEyNSA3OTMuNjg1LDI3LjkzNzUgWiBNNzkzLjY4NSwxOC43NSBRNzkzLjY4NSwxOC43NSA3OTMuNjg1LDIxLjU2MjUgTDc5NS40MzUsMjEuNTYyNSBRNzk1LjQzNSwyMS41NjI1IDc5NS40MzUsMTguNzUgTDc5My42ODUsMTguNzUgWiBNNzg5LjQzNSwxOS40Mzc1IEw3OTQuMzcyNSwxOS40Mzc1IEw3OTQuMzcyNSwxNy42ODc1IEw3ODkuNDM1LDE3LjY4NzUgTDc4OS40MzUsMTkuNDM3NSBaICIgZmlsbD0iIzAwMDAwMCIvPjx0ZXh0IGZpbGw9IiMwMDAwMDAiIGZvbnQtZmFtaWx5PSJzYW5zLXNlcmlmIiBmb250LXNpemU9IjE0IiBsZW5ndGhBZGp1c3Q9InNwYWNpbmciIHRleHRMZW5ndGg9Ijg0IiB4PSI4MTIuMzEiIHk9IjI4Ljc0MjIiPk5vdGlmaWNhdGlvbjwvdGV4dD48bGluZSBzdHlsZT0ic3Ryb2tlOiMxODE4MTg7c3Ryb2tlLXdpZHRoOjAuNTsiIHgxPSI3MTQuMDYiIHgyPSI5NjIuMDYiIHkxPSIzOSIgeTI9IjM5Ii8+PGVsbGlwc2UgY3g9IjcyNC4wNiIgY3k9IjUxLjk5MjIiIGZpbGw9Im5vbmUiIHJ4PSIzIiByeT0iMyIgc3R5bGU9InN0cm9rZTojMDM4MDQ4O3N0cm9rZS13aWR0aDoxOyIvPjx0ZXh0IGZpbGw9IiMwMDAwMDAiIGZvbnQtZmFtaWx5PSJzYW5zLXNlcmlmIiBmb250LXNpemU9IjE0IiBsZW5ndGhBZGp1c3Q9InNwYWNpbmciIHRleHRMZW5ndGg9IjcwIiB4PSI3MzMuMDYiIHk9IjU2LjIzNDQiPmlkOiBTdHJpbmc8L3RleHQ+PGVsbGlwc2UgY3g9IjcyNC4wNiIgY3k9IjY2Ljk3NjYiIGZpbGw9Im5vbmUiIHJ4PSIzIiByeT0iMyIgc3R5bGU9InN0cm9rZTojMDM4MDQ4O3N0cm9rZS13aWR0aDoxOyIvPjx0ZXh0IGZpbGw9IiMwMDAwMDAiIGZvbnQtZmFtaWx5PSJzYW5zLXNlcmlmIiBmb250LXNpemU9IjE0IiBsZW5ndGhBZGp1c3Q9InNwYWNpbmciIHRleHRMZW5ndGg9IjEwNSIgeD0iNzMzLjA2IiB5PSI3MS4yMTg4Ij5jb250ZW50OiBTdHJpbmc8L3RleHQ+PGxpbmUgc3R5bGU9InN0cm9rZTojMTgxODE4O3N0cm9rZS13aWR0aDowLjU7IiB4MT0iNzE0LjA2IiB4Mj0iOTYyLjA2IiB5MT0iNzYuOTY4OCIgeTI9Ijc2Ljk2ODgiLz48ZWxsaXBzZSBjeD0iNzI0LjA2IiBjeT0iODkuOTYwOSIgZmlsbD0iIzg0QkU4NCIgcng9IjMiIHJ5PSIzIiBzdHlsZT0ic3Ryb2tlOiMwMzgwNDg7c3Ryb2tlLXdpZHRoOjE7Ii8+PHRleHQgZmlsbD0iIzAwMDAwMCIgZm9udC1mYW1pbHk9InNhbnMtc2VyaWYiIGZvbnQtc2l6ZT0iMTQiIGxlbmd0aEFkanVzdD0ic3BhY2luZyIgdGV4dExlbmd0aD0iMjI0IiB4PSI3MzMuMDYiIHk9Ijk0LjIwMzEiPnR5cGU6IFN0cmluZyAoJiMzMTk5NTsmIzMyNDc5OyYjMzY4OTA7JiMzMDY5MzsvJiMyMTMzODsmIzIwMDI3OyYjMjYzNTY7JiMyNjAzMjspPC90ZXh0PjxlbGxpcHNlIGN4PSI3MjQuMDYiIGN5PSIxMDQuOTQ1MyIgZmlsbD0iIzg0QkU4NCIgcng9IjMiIHJ5PSIzIiBzdHlsZT0ic3Ryb2tlOiMwMzgwNDg7c3Ryb2tlLXdpZHRoOjE7Ii8+PHRleHQgZmlsbD0iIzAwMDAwMCIgZm9udC1mYW1pbHk9InNhbnMtc2VyaWYiIGZvbnQtc2l6ZT0iMTQiIGxlbmd0aEFkanVzdD0ic3BhY2luZyIgdGV4dExlbmd0aD0iNDIiIHg9IjczMy4wNiIgeT0iMTA5LjE4NzUiPnNlbmQoKTwvdGV4dD48L2c+PCEtLXJldmVyc2UgbGluayBVc2VyIHRvIENvbW1vblVzZXItLT48ZyBjbGFzcz0ibGluayIgZGF0YS1lbnRpdHktMT0iVXNlciIgZGF0YS1lbnRpdHktMj0iQ29tbW9uVXNlciIgZGF0YS1zb3VyY2UtbGluZT0iMjQiIGRhdGEtdWlkPSJsbms1IiBpZD0ibGlua19Vc2VyX0NvbW1vblVzZXIiPjxwYXRoIGNvZGVMaW5lPSIyNCIgZD0iTTc2Mi45MTIzLDM0MS40NDc3IEM3NDQuMTIyMywzNjEuODA3NyA3MzYuMjEsMzcwLjM5IDcxOS4xMSwzODguOTMiIGZpbGw9Im5vbmUiIGlkPSJVc2VyLWJhY2t0by1Db21tb25Vc2VyIiBzdHlsZT0ic3Ryb2tlOiMxODE4MTg7c3Ryb2tlLXdpZHRoOjE7Ii8+PHBvbHlnb24gZmlsbD0ibm9uZSIgcG9pbnRzPSI3NzUuMTIsMzI4LjIyLDc1OC41MDMxLDMzNy4zNzg1LDc2Ny4zMjE1LDM0NS41MTY5LDc3NS4xMiwzMjguMjIiIHN0eWxlPSJzdHJva2U6IzE4MTgxODtzdHJva2Utd2lkdGg6MTsiLz48L2c+PCEtLXJldmVyc2UgbGluayBVc2VyIHRvIE1lcmNoYW50VXNlci0tPjxnIGNsYXNzPSJsaW5rIiBkYXRhLWVudGl0eS0xPSJVc2VyIiBkYXRhLWVudGl0eS0yPSJNZXJjaGFudFVzZXIiIGRhdGEtc291cmNlLWxpbmU9IjI1IiBkYXRhLXVpZD0ibG5rNiIgaWQ9ImxpbmtfVXNlcl9NZXJjaGFudFVzZXIiPjxwYXRoIGNvZGVMaW5lPSIyNSIgZD0iTTkyNC42ODA3LDM0MC4zMDY5IEM5ODQuNTMwNywzOTUuNzg2OSAxMDU0LjY1LDQ2MC44IDExMDkuNjgsNTExLjgxIiBmaWxsPSJub25lIiBpZD0iVXNlci1iYWNrdG8tTWVyY2hhbnRVc2VyIiBzdHlsZT0ic3Ryb2tlOiMxODE4MTg7c3Ryb2tlLXdpZHRoOjE7Ii8+PHBvbHlnb24gZmlsbD0ibm9uZSIgcG9pbnRzPSI5MTEuNDgsMzI4LjA3LDkyMC42MDE4LDM0NC43MDcxLDkyOC43NTk3LDMzNS45MDY2LDkxMS40OCwzMjguMDciIHN0eWxlPSJzdHJva2U6IzE4MTgxODtzdHJva2Utd2lkdGg6MTsiLz48L2c+PCEtLWxpbmsgTWVyY2hhbnRVc2VyIHRvIENvdXBvbi0tPjxnIGNsYXNzPSJsaW5rIiBkYXRhLWVudGl0eS0xPSJNZXJjaGFudFVzZXIiIGRhdGEtZW50aXR5LTI9IkNvdXBvbiIgZGF0YS1zb3VyY2UtbGluZT0iNDQiIGRhdGEtdWlkPSJsbms5IiBpZD0ibGlua19NZXJjaGFudFVzZXJfQ291cG9uIj48cGF0aCBjb2RlTGluZT0iNDQiIGQ9Ik0xMTczLjQsNjIwLjExIEMxMTc2LjI1LDY2OC44NyAxMTcyLjU3LDc0MC41NiAxMTM1LjA2LDc4OCBDOTM0LjgyLDEwNDEuMTkgNTI1LjMwMTksMTEwNi4zNTk5IDM1NC4xOTE5LDExMjIuOTc5OSIgZmlsbD0ibm9uZSIgaWQ9Ik1lcmNoYW50VXNlci10by1Db3Vwb24iIHN0eWxlPSJzdHJva2U6IzE4MTgxODtzdHJva2Utd2lkdGg6MTsiLz48cG9seWdvbiBmaWxsPSIjMTgxODE4IiBwb2ludHM9IjM0OC4yMiwxMTIzLjU2LDM1Ny41NjQ1LDExMjYuNjcxMiwzNTMuMTk2NiwxMTIzLjA3NjYsMzU2Ljc5MTEsMTExOC43MDg3LDM0OC4yMiwxMTIzLjU2IiBzdHlsZT0ic3Ryb2tlOiMxODE4MTg7c3Ryb2tlLXdpZHRoOjE7Ii8+PHRleHQgZmlsbD0iIzAwMDAwMCIgZm9udC1mYW1pbHk9InNhbnMtc2VyaWYiIGZvbnQtc2l6ZT0iMTMiIGxlbmd0aEFkanVzdD0ic3BhY2luZyIgdGV4dExlbmd0aD0iMjYiIHg9IjExMDcuMDYiIHk9IjgzMS4yODkxIj4mIzIxNDU3OyYjMjQwNjc7PC90ZXh0Pjx0ZXh0IGZpbGw9IiMwMDAwMDAiIGZvbnQtZmFtaWx5PSJzYW5zLXNlcmlmIiBmb250LXNpemU9IjEzIiBsZW5ndGhBZGp1c3Q9InNwYWNpbmciIHRleHRMZW5ndGg9IjYuNSIgeD0iMTE2Ny44NiIgeT0iNjQwLjIyNzMiPjE8L3RleHQ+PHRleHQgZmlsbD0iIzAwMDAwMCIgZm9udC1mYW1pbHk9InNhbnMtc2VyaWYiIGZvbnQtc2l6ZT0iMTMiIGxlbmd0aEFkanVzdD0ic3BhY2luZyIgdGV4dExlbmd0aD0iMjYiIHg9IjM1Ni4xNjA4IiB5PSIxMTIxLjc0MDEiPjAuLio8L3RleHQ+PC9nPjwhLS1saW5rIFNob3AgdG8gQ291cG9uLS0+PGcgY2xhc3M9ImxpbmsiIGRhdGEtZW50aXR5LTE9IlNob3AiIGRhdGEtZW50aXR5LTI9IkNvdXBvbiIgZGF0YS1zb3VyY2UtbGluZT0iNDUiIGRhdGEtdWlkPSJsbmsxMCIgaWQ9ImxpbmtfU2hvcF9Db3Vwb24iPjxwYXRoIGNvZGVMaW5lPSI0NSIgZD0iTTI3Mi4wNiwxMDAxIEMyNzIuMDYsMTAyNS41NSAyNzIuMDYsMTA0Ni44NyAyNzIuMDYsMTA2OS45NSIgZmlsbD0ibm9uZSIgaWQ9IlNob3AtdG8tQ291cG9uIiBzdHlsZT0ic3Ryb2tlOiMxODE4MTg7c3Ryb2tlLXdpZHRoOjE7Ii8+PHBvbHlnb24gZmlsbD0iIzE4MTgxOCIgcG9pbnRzPSIyNzIuMDYsMTA3NS45NSwyNzYuMDYsMTA2Ni45NSwyNzIuMDYsMTA3MC45NSwyNjguMDYsMTA2Ni45NSwyNzIuMDYsMTA3NS45NSIgc3R5bGU9InN0cm9rZTojMTgxODE4O3N0cm9rZS13aWR0aDoxOyIvPjx0ZXh0IGZpbGw9IiMwMDAwMDAiIGZvbnQtZmFtaWx5PSJzYW5zLXNlcmlmIiBmb250LXNpemU9IjEzIiBsZW5ndGhBZGp1c3Q9InNwYWNpbmciIHRleHRMZW5ndGg9IjI2IiB4PSIyNzMuMDYiIHk9IjEwNDQuMjg5MSI+JiMyNTU1MjsmIzIwMzc5OzwvdGV4dD48dGV4dCBmaWxsPSIjMDAwMDAwIiBmb250LWZhbWlseT0ic2Fucy1zZXJpZiIgZm9udC1zaXplPSIxMyIgbGVuZ3RoQWRqdXN0PSJzcGFjaW5nIiB0ZXh0TGVuZ3RoPSI2LjUiIHg9IjI2NS43NzY0IiB5PSIxMDIxLjEyNyI+MTwvdGV4dD48dGV4dCBmaWxsPSIjMDAwMDAwIiBmb250LWZhbWlseT0ic2Fucy1zZXJpZiIgZm9udC1zaXplPSIxMyIgbGVuZ3RoQWRqdXN0PSJzcGFjaW5nIiB0ZXh0TGVuZ3RoPSIyNiIgeD0iMjQ0LjE1MDYiIHk9IjEwNjYuNDE3NSI+MC4uKjwvdGV4dD48L2c+PCEtLWxpbmsgQ29tbW9uVXNlciB0byBDb3Vwb24tLT48ZyBjbGFzcz0ibGluayIgZGF0YS1lbnRpdHktMT0iQ29tbW9uVXNlciIgZGF0YS1lbnRpdHktMj0iQ291cG9uIiBkYXRhLXNvdXJjZS1saW5lPSI0NiIgZGF0YS11aWQ9ImxuazExIiBpZD0ibGlua19Db21tb25Vc2VyX0NvdXBvbiI+PHBhdGggY29kZUxpbmU9IjQ2IiBkPSJNNTcyLjgsNDQ3Ljc2IEM0OTcuMjksNDU4LjMgMzkzLjgzLDQ3Ny43NCAzMDguMDYsNTEyIEMyMDAuNTIsNTU0Ljk1IDE0My4yMSw1NDguNzMgODcuMDYsNjUwIEM2LDc5Ni4xOCAxMzguOTc2Nyw5ODAuNjU3OCAyMTguMDU2NywxMDcxLjM0NzgiIGZpbGw9Im5vbmUiIGlkPSJDb21tb25Vc2VyLXRvLUNvdXBvbiIgc3R5bGU9InN0cm9rZTojMTgxODE4O3N0cm9rZS13aWR0aDoxOyIvPjxwb2x5Z29uIGZpbGw9IiMxODE4MTgiIHBvaW50cz0iMjIyLDEwNzUuODcsMjE5LjA5OTksMTA2Ni40NTc4LDIxOC43MTM5LDEwNzIuMTAxNSwyMTMuMDcwMywxMDcxLjcxNTUsMjIyLDEwNzUuODciIHN0eWxlPSJzdHJva2U6IzE4MTgxODtzdHJva2Utd2lkdGg6MTsiLz48dGV4dCBmaWxsPSIjMDAwMDAwIiBmb250LWZhbWlseT0ic2Fucy1zZXJpZiIgZm9udC1zaXplPSIxMyIgbGVuZ3RoQWRqdXN0PSJzcGFjaW5nIiB0ZXh0TGVuZ3RoPSIyNiIgeD0iNzcuMDYiIHk9IjgzMS4yODkxIj4mIzI1MjUwOyYjMzYxNDE7PC90ZXh0Pjx0ZXh0IGZpbGw9IiMwMDAwMDAiIGZvbnQtZmFtaWx5PSJzYW5zLXNlcmlmIiBmb250LXNpemU9IjEzIiBsZW5ndGhBZGp1c3Q9InNwYWNpbmciIHRleHRMZW5ndGg9IjYuNSIgeD0iNTU4LjYwNyIgeT0iNDQ3LjUyNjgiPjE8L3RleHQ+PHRleHQgZmlsbD0iIzAwMDAwMCIgZm9udC1mYW1pbHk9InNhbnMtc2VyaWYiIGZvbnQtc2l6ZT0iMTMiIGxlbmd0aEFkanVzdD0ic3BhY2luZyIgdGV4dExlbmd0aD0iMjYiIHg9IjE4Ni43MzgxIiB5PSIxMDY2LjMyNTciPjAuLio8L3RleHQ+PC9nPjwhLS1saW5rIENvbW1vblVzZXIgdG8gUmV2aWV3LS0+PGcgY2xhc3M9ImxpbmsiIGRhdGEtZW50aXR5LTE9IkNvbW1vblVzZXIiIGRhdGEtZW50aXR5LTI9IlJldmlldyIgZGF0YS1zb3VyY2UtbGluZT0iNjciIGRhdGEtdWlkPSJsbmsxNCIgaWQ9ImxpbmtfQ29tbW9uVXNlcl9SZXZpZXciPjxwYXRoIGNvZGVMaW5lPSI2NyIgZD0iTTU3Mi45OCw0NjkuMzIgQzU0MC43OCw0ODEuMDcgNTA1Ljc0LDQ5NS41MyA0NzUuMDYsNTEyIEM0MDIuMzQsNTUxLjAzIDMzMS43Mjc1LDYwMi43MjcyIDI3Ni45NDc1LDY0Ni4yNTcyIiBmaWxsPSJub25lIiBpZD0iQ29tbW9uVXNlci10by1SZXZpZXciIHN0eWxlPSJzdHJva2U6IzE4MTgxODtzdHJva2Utd2lkdGg6MTsiLz48cG9seWdvbiBmaWxsPSIjMTgxODE4IiBwb2ludHM9IjI3Mi4yNSw2NDkuOTksMjgxLjc4NDcsNjQ3LjUyMjUsMjc2LjE2NDYsNjQ2Ljg3OTQsMjc2LjgwNzcsNjQxLjI1OTIsMjcyLjI1LDY0OS45OSIgc3R5bGU9InN0cm9rZTojMTgxODE4O3N0cm9rZS13aWR0aDoxOyIvPjx0ZXh0IGZpbGw9IiMwMDAwMDAiIGZvbnQtZmFtaWx5PSJzYW5zLXNlcmlmIiBmb250LXNpemU9IjEzIiBsZW5ndGhBZGp1c3Q9InNwYWNpbmciIHRleHRMZW5ndGg9IjI2IiB4PSI0NzYuMDYiIHk9IjU3MS43ODkxIj4mIzIxNDU3OyYjMjQwNjc7PC90ZXh0Pjx0ZXh0IGZpbGw9IiMwMDAwMDAiIGZvbnQtZmFtaWx5PSJzYW5zLXNlcmlmIiBmb250LXNpemU9IjEzIiBsZW5ndGhBZGp1c3Q9InNwYWNpbmciIHRleHRMZW5ndGg9IjYuNSIgeD0iNTU4LjQ2NyIgeT0iNDcwLjgyNDQiPjE8L3RleHQ+PHRleHQgZmlsbD0iIzAwMDAwMCIgZm9udC1mYW1pbHk9InNhbnMtc2VyaWYiIGZvbnQtc2l6ZT0iMTMiIGxlbmd0aEFkanVzdD0ic3BhY2luZyIgdGV4dExlbmd0aD0iMjYiIHg9IjI1NC4xMzQ1IiB5PSI2NDAuNjA2NSI+MC4uKjwvdGV4dD48L2c+PCEtLWxpbmsgQ29tbW9uVXNlciB0byBCbG9nLS0+PGcgY2xhc3M9ImxpbmsiIGRhdGEtZW50aXR5LTE9IkNvbW1vblVzZXIiIGRhdGEtZW50aXR5LTI9IkJsb2ciIGRhdGEtc291cmNlLWxpbmU9IjY4IiBkYXRhLXVpZD0ibG5rMTUiIGlkPSJsaW5rX0NvbW1vblVzZXJfQmxvZyI+PHBhdGggY29kZUxpbmU9IjY4IiBkPSJNNjM1LjQ4LDQ4Mi4wNCBDNTk0LDUyNy40OCA1MzMuODA1NSw1OTMuNDA5IDQ4Ni4yNjU1LDY0NS40NzkiIGZpbGw9Im5vbmUiIGlkPSJDb21tb25Vc2VyLXRvLUJsb2ciIHN0eWxlPSJzdHJva2U6IzE4MTgxODtzdHJva2Utd2lkdGg6MTsiLz48cG9seWdvbiBmaWxsPSIjMTgxODE4IiBwb2ludHM9IjQ4Mi4yMiw2NDkuOTEsNDkxLjI0MjMsNjQ1Ljk2MDUsNDg1LjU5MTMsNjQ2LjIxNzUsNDg1LjMzNDMsNjQwLjU2NjUsNDgyLjIyLDY0OS45MSIgc3R5bGU9InN0cm9rZTojMTgxODE4O3N0cm9rZS13aWR0aDoxOyIvPjx0ZXh0IGZpbGw9IiMwMDAwMDAiIGZvbnQtZmFtaWx5PSJzYW5zLXNlcmlmIiBmb250LXNpemU9IjEzIiBsZW5ndGhBZGp1c3Q9InNwYWNpbmciIHRleHRMZW5ndGg9IjI2IiB4PSI2MDMuMDYiIHk9IjU3MS43ODkxIj4mIzIxNDU3OyYjMjQwNjc7PC90ZXh0Pjx0ZXh0IGZpbGw9IiMwMDAwMDAiIGZvbnQtZmFtaWx5PSJzYW5zLXNlcmlmIiBmb250LXNpemU9IjEzIiBsZW5ndGhBZGp1c3Q9InNwYWNpbmciIHRleHRMZW5ndGg9IjYuNSIgeD0iNjIyLjk2OSIgeT0iNTAyLjE4OTkiPjE8L3RleHQ+PHRleHQgZmlsbD0iIzAwMDAwMCIgZm9udC1mYW1pbHk9InNhbnMtc2VyaWYiIGZvbnQtc2l6ZT0iMTMiIGxlbmd0aEFkanVzdD0ic3BhY2luZyIgdGV4dExlbmd0aD0iMjYiIHg9IjQ2MS45MDQxIiB5PSI2NDAuNTE3MiI+MC4uKjwvdGV4dD48L2c+PCEtLWxpbmsgUmV2aWV3IHRvIFNob3AtLT48ZyBjbGFzcz0ibGluayIgZGF0YS1lbnRpdHktMT0iUmV2aWV3IiBkYXRhLWVudGl0eS0yPSJTaG9wIiBkYXRhLXNvdXJjZS1saW5lPSI2OSIgZGF0YS11aWQ9ImxuazE2IiBpZD0ibGlua19SZXZpZXdfU2hvcCI+PHBhdGggY29kZUxpbmU9IjY5IiBkPSJNMjE3LjI0LDc4OC4yMSBDMjI2LjQsODEyLjA1IDIzNC41MjA4LDgzMy4yMDgxIDI0My42NzA4LDg1Ny4wNTgxIiBmaWxsPSJub25lIiBpZD0iUmV2aWV3LXRvLVNob3AiIHN0eWxlPSJzdHJva2U6IzE4MTgxODtzdHJva2Utd2lkdGg6MTsiLz48cG9seWdvbiBmaWxsPSIjMTgxODE4IiBwb2ludHM9IjI0NS44Miw4NjIuNjYsMjQ2LjMzMDksODUyLjgyNDQsMjQ0LjAyOSw4NTcuOTkxOCwyMzguODYxNyw4NTUuNjg5OSwyNDUuODIsODYyLjY2IiBzdHlsZT0ic3Ryb2tlOiMxODE4MTg7c3Ryb2tlLXdpZHRoOjE7Ii8+PHRleHQgZmlsbD0iIzAwMDAwMCIgZm9udC1mYW1pbHk9InNhbnMtc2VyaWYiIGZvbnQtc2l6ZT0iMTMiIGxlbmd0aEFkanVzdD0ic3BhY2luZyIgdGV4dExlbmd0aD0iNTIiIHg9IjIzNS4wNiIgeT0iODMxLjI4OTEiPiYjMjA4NTE7JiMzMjg1MjsmIzIxODMwOyYjMjM0Nzg7PC90ZXh0Pjx0ZXh0IGZpbGw9IiMwMDAwMDAiIGZvbnQtZmFtaWx5PSJzYW5zLXNlcmlmIiBmb250LXNpemU9IjEzIiBsZW5ndGhBZGp1c3Q9InNwYWNpbmciIHRleHRMZW5ndGg9IjYuNSIgeD0iMjEzLjY1NjIiIHk9IjgwOC4zNTg2Ij4xPC90ZXh0Pjx0ZXh0IGZpbGw9IiMwMDAwMDAiIGZvbnQtZmFtaWx5PSJzYW5zLXNlcmlmIiBmb250LXNpemU9IjEzIiBsZW5ndGhBZGp1c3Q9InNwYWNpbmciIHRleHRMZW5ndGg9IjYuNSIgeD0iMjM2LjQ2OCIgeT0iODUzLjIzODMiPjE8L3RleHQ+PC9nPjwhLS1saW5rIEJsb2cgdG8gU2hvcC0tPjxnIGNsYXNzPSJsaW5rIiBkYXRhLWVudGl0eS0xPSJCbG9nIiBkYXRhLWVudGl0eS0yPSJTaG9wIiBkYXRhLXNvdXJjZS1saW5lPSI3MCIgZGF0YS11aWQ9ImxuazE3IiBpZD0ibGlua19CbG9nX1Nob3AiPjxwYXRoIGNvZGVMaW5lPSI3MCIgZD0iTTM3Mi4yMSw3ODguMjEgQzM1NS40OSw4MTIuMDUgMzQwLjE2NTYsODMzLjg5OCAzMjMuNDM1Niw4NTcuNzQ4IiBmaWxsPSJub25lIiBpZD0iQmxvZy10by1TaG9wIiBzdHlsZT0ic3Ryb2tlOiMxODE4MTg7c3Ryb2tlLXdpZHRoOjE7Ii8+PHBvbHlnb24gZmlsbD0iIzE4MTgxOCIgcG9pbnRzPSIzMTkuOTksODYyLjY2LDMyOC40MzMxLDg1Ny41ODkxLDMyMi44NjEzLDg1OC41NjY3LDMyMS44ODM3LDg1Mi45OTQ5LDMxOS45OSw4NjIuNjYiIHN0eWxlPSJzdHJva2U6IzE4MTgxODtzdHJva2Utd2lkdGg6MTsiLz48dGV4dCBmaWxsPSIjMDAwMDAwIiBmb250LWZhbWlseT0ic2Fucy1zZXJpZiIgZm9udC1zaXplPSIxMyIgbGVuZ3RoQWRqdXN0PSJzcGFjaW5nIiB0ZXh0TGVuZ3RoPSI1MiIgeD0iMzUyLjA2IiB5PSI4MzEuMjg5MSI+JiMyMDg1MTsmIzMyODUyOyYjMjE4MzA7JiMyMzQ3ODs8L3RleHQ+PHRleHQgZmlsbD0iIzAwMDAwMCIgZm9udC1mYW1pbHk9InNhbnMtc2VyaWYiIGZvbnQtc2l6ZT0iMTMiIGxlbmd0aEFkanVzdD0ic3BhY2luZyIgdGV4dExlbmd0aD0iNi41IiB4PSIzNjAuOTkxOSIgeT0iODA4LjM1ODYiPjE8L3RleHQ+PHRleHQgZmlsbD0iIzAwMDAwMCIgZm9udC1mYW1pbHk9InNhbnMtc2VyaWYiIGZvbnQtc2l6ZT0iMTMiIGxlbmd0aEFkanVzdD0ic3BhY2luZyIgdGV4dExlbmd0aD0iNi41IiB4PSIzMTkuMjEzOSIgeT0iODUzLjIzODMiPjE8L3RleHQ+PC9nPjwhLS1saW5rIENvbW1vblVzZXIgdG8gRm9sbG93LS0+PGcgY2xhc3M9ImxpbmsiIGRhdGEtZW50aXR5LTE9IkNvbW1vblVzZXIiIGRhdGEtZW50aXR5LTI9IkZvbGxvdyIgZGF0YS1zb3VyY2UtbGluZT0iOTYiIGRhdGEtdWlkPSJsbmsyMiIgaWQ9ImxpbmtfQ29tbW9uVXNlcl9Gb2xsb3ciPjxwYXRoIGNvZGVMaW5lPSI5NiIgZD0iTTY3Ny4wNiw0ODIuMDQgQzY3Ny4wNiw1MzYuOTcgNjc3LjA2LDYyMi4zMiA2NzcuMDYsNjczLjc2IiBmaWxsPSJub25lIiBpZD0iQ29tbW9uVXNlci10by1Gb2xsb3ciIHN0eWxlPSJzdHJva2U6IzE4MTgxODtzdHJva2Utd2lkdGg6MTsiLz48cG9seWdvbiBmaWxsPSIjMTgxODE4IiBwb2ludHM9IjY3Ny4wNiw2NzkuNzYsNjgxLjA2LDY3MC43Niw2NzcuMDYsNjc0Ljc2LDY3My4wNiw2NzAuNzYsNjc3LjA2LDY3OS43NiIgc3R5bGU9InN0cm9rZTojMTgxODE4O3N0cm9rZS13aWR0aDoxOyIvPjx0ZXh0IGZpbGw9IiMwMDAwMDAiIGZvbnQtZmFtaWx5PSJzYW5zLXNlcmlmIiBmb250LXNpemU9IjEzIiBsZW5ndGhBZGp1c3Q9InNwYWNpbmciIHRleHRMZW5ndGg9IjI2IiB4PSI2NzguMDYiIHk9IjU3MS43ODkxIj4mIzIwODUxOyYjMjc4ODA7PC90ZXh0Pjx0ZXh0IGZpbGw9IiMwMDAwMDAiIGZvbnQtZmFtaWx5PSJzYW5zLXNlcmlmIiBmb250LXNpemU9IjEzIiBsZW5ndGhBZGp1c3Q9InNwYWNpbmciIHRleHRMZW5ndGg9IjYuNSIgeD0iNjcwLjY1NjEiIHk9IjUwMi4xODk5Ij4xPC90ZXh0Pjx0ZXh0IGZpbGw9IiMwMDAwMDAiIGZvbnQtZmFtaWx5PSJzYW5zLXNlcmlmIiBmb250LXNpemU9IjEzIiBsZW5ndGhBZGp1c3Q9InNwYWNpbmciIHRleHRMZW5ndGg9IjI2IiB4PSI2NDguNTgxOSIgeT0iNjcwLjQyIj4wLi4qPC90ZXh0PjwvZz48IS0tbGluayBDb21tb25Vc2VyIHRvIExpa2UtLT48ZyBjbGFzcz0ibGluayIgZGF0YS1lbnRpdHktMT0iQ29tbW9uVXNlciIgZGF0YS1lbnRpdHktMj0iTGlrZSIgZGF0YS1zb3VyY2UtbGluZT0iOTciIGRhdGEtdWlkPSJsbmsyMyIgaWQ9ImxpbmtfQ29tbW9uVXNlcl9MaWtlIj48cGF0aCBjb2RlTGluZT0iOTciIGQ9Ik03MTEuMzUsNDgyLjA0IEM3NTIuNzIsNTM2Ljk3IDgxNy45MTA1LDYyMy41MjcyIDg1Ni42NTA1LDY3NC45NjcyIiBmaWxsPSJub25lIiBpZD0iQ29tbW9uVXNlci10by1MaWtlIiBzdHlsZT0ic3Ryb2tlOiMxODE4MTg7c3Ryb2tlLXdpZHRoOjE7Ii8+PHBvbHlnb24gZmlsbD0iIzE4MTgxOCIgcG9pbnRzPSI4NjAuMjYsNjc5Ljc2LDg1OC4wNDA5LDY3MC4xNjQ0LDg1Ny4yNTIxLDY3NS43NjYsODUxLjY1MDUsNjc0Ljk3NzEsODYwLjI2LDY3OS43NiIgc3R5bGU9InN0cm9rZTojMTgxODE4O3N0cm9rZS13aWR0aDoxOyIvPjx0ZXh0IGZpbGw9IiMwMDAwMDAiIGZvbnQtZmFtaWx5PSJzYW5zLXNlcmlmIiBmb250LXNpemU9IjEzIiBsZW5ndGhBZGp1c3Q9InNwYWNpbmciIHRleHRMZW5ndGg9IjI2IiB4PSI4MTYuMDYiIHk9IjU3MS43ODkxIj4mIzI4ODU3OyYjMzYxOTA7PC90ZXh0Pjx0ZXh0IGZpbGw9IiMwMDAwMDAiIGZvbnQtZmFtaWx5PSJzYW5zLXNlcmlmIiBmb250LXNpemU9IjEzIiBsZW5ndGhBZGp1c3Q9InNwYWNpbmciIHRleHRMZW5ndGg9IjYuNSIgeD0iNzA5Ljk4MjQiIHk9IjUwMi4xODk5Ij4xPC90ZXh0Pjx0ZXh0IGZpbGw9IiMwMDAwMDAiIGZvbnQtZmFtaWx5PSJzYW5zLXNlcmlmIiBmb250LXNpemU9IjEzIiBsZW5ndGhBZGp1c3Q9InNwYWNpbmciIHRleHRMZW5ndGg9IjI2IiB4PSI4MjYuMjkxOSIgeT0iNjcwLjQyIj4wLi4qPC90ZXh0PjwvZz48IS0tbGluayBDb21tb25Vc2VyIHRvIENvbW1lbnQtLT48ZyBjbGFzcz0ibGluayIgZGF0YS1lbnRpdHktMT0iQ29tbW9uVXNlciIgZGF0YS1lbnRpdHktMj0iQ29tbWVudCIgZGF0YS1zb3VyY2UtbGluZT0iOTgiIGRhdGEtdWlkPSJsbmsyNCIgaWQ9ImxpbmtfQ29tbW9uVXNlcl9Db21tZW50Ij48cGF0aCBjb2RlTGluZT0iOTgiIGQ9Ik03ODEuMzEsNDczLjkgQzgwNS4xOCw0ODQuNTYgODI5Ljc3LDQ5Ny4zMyA4NTEuMDYsNTEyIEM5MTcuMDksNTU3LjUyIDk3NS41MjcyLDYyMi4yODkgMTAxMi43NzcyLDY2Ny43NDkiIGZpbGw9Im5vbmUiIGlkPSJDb21tb25Vc2VyLXRvLUNvbW1lbnQiIHN0eWxlPSJzdHJva2U6IzE4MTgxODtzdHJva2Utd2lkdGg6MTsiLz48cG9seWdvbiBmaWxsPSIjMTgxODE4IiBwb2ludHM9IjEwMTYuNTgsNjcyLjM5LDEwMTMuOTY5OCw2NjIuODkzMywxMDEzLjQxMSw2NjguNTIyNSwxMDA3Ljc4MTgsNjY3Ljk2MzgsMTAxNi41OCw2NzIuMzkiIHN0eWxlPSJzdHJva2U6IzE4MTgxODtzdHJva2Utd2lkdGg6MTsiLz48dGV4dCBmaWxsPSIjMDAwMDAwIiBmb250LWZhbWlseT0ic2Fucy1zZXJpZiIgZm9udC1zaXplPSIxMyIgbGVuZ3RoQWRqdXN0PSJzcGFjaW5nIiB0ZXh0TGVuZ3RoPSIyNiIgeD0iOTY5LjA2IiB5PSI1NzEuNzg5MSI+JiMzNTc4MDsmIzM1NzcwOzwvdGV4dD48dGV4dCBmaWxsPSIjMDAwMDAwIiBmb250LWZhbWlseT0ic2Fucy1zZXJpZiIgZm9udC1zaXplPSIxMyIgbGVuZ3RoQWRqdXN0PSJzcGFjaW5nIiB0ZXh0TGVuZ3RoPSI2LjUiIHg9Ijc4OS4yMDQ1IiB5PSI0NzUuNTY3Ij4xPC90ZXh0Pjx0ZXh0IGZpbGw9IiMwMDAwMDAiIGZvbnQtZmFtaWx5PSJzYW5zLXNlcmlmIiBmb250LXNpemU9IjEzIiBsZW5ndGhBZGp1c3Q9InNwYWNpbmciIHRleHRMZW5ndGg9IjI2IiB4PSI5ODIuNTUwNSIgeT0iNjYyLjk2MjMiPjAuLio8L3RleHQ+PC9nPjwhLS1saW5rIE5vdGlmaWNhdGlvbiB0byBVc2VyLS0+PGcgY2xhc3M9ImxpbmsiIGRhdGEtZW50aXR5LTE9Ik5vdGlmaWNhdGlvbiIgZGF0YS1lbnRpdHktMj0iVXNlciIgZGF0YS1zb3VyY2UtbGluZT0iOTkiIGRhdGEtdWlkPSJsbmsyNSIgaWQ9ImxpbmtfTm90aWZpY2F0aW9uX1VzZXIiPjxwYXRoIGNvZGVMaW5lPSI5OSIgZD0iTTgzOC4wNiwxMTUuMDQgQzgzOC4wNiwxMzguMDUgODM4LjA2LDE1OS4yOSA4MzguMDYsMTgzLjc5IiBmaWxsPSJub25lIiBpZD0iTm90aWZpY2F0aW9uLXRvLVVzZXIiIHN0eWxlPSJzdHJva2U6IzE4MTgxODtzdHJva2Utd2lkdGg6MTsiLz48cG9seWdvbiBmaWxsPSIjMTgxODE4IiBwb2ludHM9IjgzOC4wNiwxODkuNzksODQyLjA2LDE4MC43OSw4MzguMDYsMTg0Ljc5LDgzNC4wNiwxODAuNzksODM4LjA2LDE4OS43OSIgc3R5bGU9InN0cm9rZTojMTgxODE4O3N0cm9rZS13aWR0aDoxOyIvPjx0ZXh0IGZpbGw9IiMwMDAwMDAiIGZvbnQtZmFtaWx5PSJzYW5zLXNlcmlmIiBmb250LXNpemU9IjEzIiBsZW5ndGhBZGp1c3Q9InNwYWNpbmciIHRleHRMZW5ndGg9IjI2IiB4PSI4MzkuMDYiIHk9IjE1OC4yODkxIj4mIzIxNDU3OyYjMzY4NjU7PC90ZXh0Pjx0ZXh0IGZpbGw9IiMwMDAwMDAiIGZvbnQtZmFtaWx5PSJzYW5zLXNlcmlmIiBmb250LXNpemU9IjEzIiBsZW5ndGhBZGp1c3Q9InNwYWNpbmciIHRleHRMZW5ndGg9IjYuNSIgeD0iODMxLjcwNzciIHk9IjEzNS4xNDgzIj4xPC90ZXh0Pjx0ZXh0IGZpbGw9IiMwMDAwMDAiIGZvbnQtZmFtaWx5PSJzYW5zLXNlcmlmIiBmb250LXNpemU9IjEzIiBsZW5ndGhBZGp1c3Q9InNwYWNpbmciIHRleHRMZW5ndGg9IjI2IiB4PSI4MTAuNTU2OSIgeT0iMTgwLjM4MzQiPjAuLio8L3RleHQ+PC9nPjwhLS1TUkM9W2ZMSFRKbkQxNTd0Vk5wN2YyckczbzhDbDZxQVk2NjhKbjRKWTNyWXdxdFIyeGluY1BuT3FRVzlZSUpMMXFBMUhDNjg4MVg5M0dPalFnVkpOVDNfdTV5eEVia3JpaW1pYXhhRXRTX1ZDY05sRmtOUzZYZjhGeTNWc2xUaGxPRXpqeUZBN2x6THFnbXRfVW1scWVQSVllTDRBN2I5ZVdvU0EwRFMxcWJLbW1zbzRvczlmTEdZNm9HWlZpNDNpOUNtY0hlbTJXeng3LWpkWVBmSjBZRmprblF0X1lYUHYwUVFlWjBqdWlCVXV4cDItVWdQcWl2YVdmYWNtYjlENTQ2UEsxR05DTzliNzFfczNqYml4eWxTRXRUZkFINUVpbUU5U0o2ZjM3SzlwV1pXTW1KQnBGTVdOQW5mYzRaVWo0NmpRQ3ZDclhpNVJrY3YzSVhEbkt5RFE2U3htaHpzM0I2Vk1HQkdZZG9JdW52dm8xdGZySTQ0djFLS1B3N1NqS2dsSlZEdHYteTVSX2tCTWNYY01YS2NhTXVSeGd6NUlBaDRybmwtZ09EOFc2WEVITU9TWXA2NXRZTUNkaU93YlFtbU1TOGFhTkdmaEphejFDdWMzY1NtRTdyZDhYZFN1Wm1oMnR5V3FXZE40NEM2enlwWHptZ0pTUTh1QkMwdm9EdVE3aC1ORTNyTTFrX1I2Ukl1aEdlS2laQlVzdGNibEFMOHhQSTlWeEdKNzFvYnMtQ19fMThTbGsxdGt3Z1BSdHlkbXVXNlNIdDBYTkdmVTh1RVg1WWRZbl9xeUVkR3B3WVRheWx4WVFhbVhvaVFZN1VGWW1wcEk4S2RFT1RId2lZTXQzTEEtVVhPNkFNZ1gtQnN2VEp5VC1VaWhkVERMX3hKLVZfYmFRenhMQWRPbTZvY2dZTjdUVko2Nmx1TnY3NTFqMTRpUnFVMGVPakRiZTFJVlR6a1RhcnRrU3RYbFJOX0R5N2NJNjBPdnp4YWE1ajBrdzlBMHJPUk5zMHlNZ3RhUGVpa0dPRVVSWDhnamNxOXBpNGxpSzlhcWNhclViSEhBdDlKU3JZamxKNms1YzZvUUM1SDJLSy1hVG41eFI0Y3RsRHplLVF0aklCMEhGWC1UUGlsUkVsUlU3LUtwTXV2Mmg1X004NXNIWE1MU2ZXa0dHWkRMcEVaRnBuVUVVUUlJMmxXaTFfS0o5TDVmN3JXR1lBdXhNcnB3MW0wMF0tLT48L2c+PC9zdmc+;" vertex="1" parent="1">
            <mxGeometry x="250" y="-280" width="781.88" height="742.57" as="geometry" />
          </mxCell>
        </UserObject>
      </root>
    </mxGraphModel>
  </diagram>
</mxfile>
